<mxfile host="app.diagrams.net" agent="Mozilla/5.0 (Windows NT 10.0; Win64; x64) AppleWebKit/537.36 (KHTML, like Gecko) Chrome/138.0.0.0 Safari/537.36" version="28.0.4" pages="5">
  <diagram id="Ql24FMoV8OPCsnQG8YXp" name="Page-1">
    <mxGraphModel dx="1143" dy="1448" grid="0" gridSize="10" guides="1" tooltips="1" connect="1" arrows="1" fold="1" page="0" pageScale="1" pageWidth="827" pageHeight="1169" math="0" shadow="0">
      <root>
        <mxCell id="0" />
        <mxCell id="1" parent="0" />
        <mxCell id="pVZp7bhtt_Pac3a2WZZ1-1" value="High Level Architecture" style="text;strokeColor=none;fillColor=none;html=1;align=center;verticalAlign=middle;whiteSpace=wrap;rounded=0;fontSize=16;fontStyle=1" vertex="1" parent="1">
          <mxGeometry x="56" y="-536" width="201" height="30" as="geometry" />
        </mxCell>
        <mxCell id="pVZp7bhtt_Pac3a2WZZ1-2" value="" style="rounded=0;whiteSpace=wrap;html=1;fillColor=none;dashed=1;strokeColor=light-dark(#4f4f4f, #ededed);" vertex="1" parent="1">
          <mxGeometry x="-28" y="-462" width="162" height="466" as="geometry" />
        </mxCell>
        <mxCell id="pVZp7bhtt_Pac3a2WZZ1-3" value="Sources" style="rounded=0;whiteSpace=wrap;html=1;fillColor=default;fontSize=18;strokeColor=none;" vertex="1" parent="1">
          <mxGeometry x="14" y="-481" width="120" height="29" as="geometry" />
        </mxCell>
        <mxCell id="pVZp7bhtt_Pac3a2WZZ1-4" value="" style="swimlane;startSize=0;" vertex="1" parent="1">
          <mxGeometry x="143" y="-463" width="522" height="466" as="geometry" />
        </mxCell>
        <mxCell id="pVZp7bhtt_Pac3a2WZZ1-13" value="" style="edgeStyle=none;curved=1;rounded=0;orthogonalLoop=1;jettySize=auto;html=1;fontSize=12;startSize=8;endSize=8;" edge="1" parent="pVZp7bhtt_Pac3a2WZZ1-4" source="pVZp7bhtt_Pac3a2WZZ1-9" target="pVZp7bhtt_Pac3a2WZZ1-12">
          <mxGeometry relative="1" as="geometry" />
        </mxCell>
        <mxCell id="pVZp7bhtt_Pac3a2WZZ1-9" value="Bronze Layer" style="rounded=1;whiteSpace=wrap;html=1;fontSize=14;fillColor=#ffe6cc;strokeColor=#d79b00;" vertex="1" parent="pVZp7bhtt_Pac3a2WZZ1-4">
          <mxGeometry x="24" y="15" width="120" height="27" as="geometry" />
        </mxCell>
        <mxCell id="pVZp7bhtt_Pac3a2WZZ1-12" value="" style="rounded=1;whiteSpace=wrap;html=1;fontSize=14;fillColor=none;strokeColor=#d79b00;" vertex="1" parent="pVZp7bhtt_Pac3a2WZZ1-4">
          <mxGeometry x="10" y="50" width="147" height="404" as="geometry" />
        </mxCell>
        <mxCell id="pVZp7bhtt_Pac3a2WZZ1-14" value="Silver Layer" style="rounded=1;whiteSpace=wrap;html=1;fontSize=14;fillColor=#f5f5f5;strokeColor=#666666;gradientColor=#b3b3b3;" vertex="1" parent="pVZp7bhtt_Pac3a2WZZ1-4">
          <mxGeometry x="188.5" y="15" width="120" height="27" as="geometry" />
        </mxCell>
        <mxCell id="pVZp7bhtt_Pac3a2WZZ1-15" value="" style="rounded=1;whiteSpace=wrap;html=1;fontSize=14;fillColor=none;strokeColor=#d79b00;" vertex="1" parent="pVZp7bhtt_Pac3a2WZZ1-4">
          <mxGeometry x="167" y="50" width="172" height="404" as="geometry" />
        </mxCell>
        <mxCell id="pVZp7bhtt_Pac3a2WZZ1-16" value="Gold Layer" style="rounded=1;whiteSpace=wrap;html=1;fontSize=14;fillColor=#ffcd28;strokeColor=#d79b00;gradientColor=#ffa500;" vertex="1" parent="pVZp7bhtt_Pac3a2WZZ1-4">
          <mxGeometry x="366.5" y="15" width="120" height="27" as="geometry" />
        </mxCell>
        <mxCell id="pVZp7bhtt_Pac3a2WZZ1-17" value="" style="rounded=1;whiteSpace=wrap;html=1;fontSize=14;fillColor=none;strokeColor=#d79b00;" vertex="1" parent="pVZp7bhtt_Pac3a2WZZ1-4">
          <mxGeometry x="346" y="50" width="168" height="404" as="geometry" />
        </mxCell>
        <mxCell id="pVZp7bhtt_Pac3a2WZZ1-35" value="" style="html=1;verticalLabelPosition=bottom;align=center;labelBackgroundColor=#ffffff;verticalAlign=top;strokeWidth=2;strokeColor=#d79b00;shadow=0;dashed=0;shape=mxgraph.ios7.icons.data;fontSize=15;fillColor=#ffe6cc;" vertex="1" parent="pVZp7bhtt_Pac3a2WZZ1-4">
          <mxGeometry x="58.5" y="93" width="50" height="61" as="geometry" />
        </mxCell>
        <mxCell id="pVZp7bhtt_Pac3a2WZZ1-36" value="" style="html=1;verticalLabelPosition=bottom;align=center;labelBackgroundColor=#ffffff;verticalAlign=top;strokeWidth=2;strokeColor=#666666;shadow=0;dashed=0;shape=mxgraph.ios7.icons.data;fontSize=15;fillColor=#f5f5f5;gradientColor=#b3b3b3;" vertex="1" parent="pVZp7bhtt_Pac3a2WZZ1-4">
          <mxGeometry x="223.5" y="93" width="50" height="61" as="geometry" />
        </mxCell>
        <mxCell id="pVZp7bhtt_Pac3a2WZZ1-37" value="" style="html=1;verticalLabelPosition=bottom;align=center;labelBackgroundColor=#ffffff;verticalAlign=top;strokeWidth=2;strokeColor=#d79b00;shadow=0;dashed=0;shape=mxgraph.ios7.icons.data;fontSize=15;fillColor=#ffcd28;gradientColor=#ffa500;" vertex="1" parent="pVZp7bhtt_Pac3a2WZZ1-4">
          <mxGeometry x="404.5" y="93" width="50" height="61" as="geometry" />
        </mxCell>
        <mxCell id="pVZp7bhtt_Pac3a2WZZ1-40" value="" style="shape=flexArrow;endArrow=classic;html=1;rounded=0;fontSize=12;startSize=8;endSize=8;curved=1;entryX=0.158;entryY=0.455;entryDx=0;entryDy=0;entryPerimeter=0;fillColor=#dae8fc;strokeColor=#6c8ebf;" edge="1" parent="pVZp7bhtt_Pac3a2WZZ1-4">
          <mxGeometry width="50" height="50" relative="1" as="geometry">
            <mxPoint x="127.02" y="142.06" as="sourcePoint" />
            <mxPoint x="192.98000000000005" y="142.00000000000006" as="targetPoint" />
            <Array as="points">
              <mxPoint x="165.02" y="142.06" />
            </Array>
          </mxGeometry>
        </mxCell>
        <mxCell id="pVZp7bhtt_Pac3a2WZZ1-41" value="" style="shape=flexArrow;endArrow=classic;html=1;rounded=0;fontSize=12;startSize=8;endSize=8;curved=1;entryX=0.158;entryY=0.455;entryDx=0;entryDy=0;entryPerimeter=0;fillColor=#dae8fc;strokeColor=#6c8ebf;" edge="1" parent="pVZp7bhtt_Pac3a2WZZ1-4">
          <mxGeometry width="50" height="50" relative="1" as="geometry">
            <mxPoint x="311" y="142.06" as="sourcePoint" />
            <mxPoint x="376.96000000000004" y="142.00000000000006" as="targetPoint" />
            <Array as="points">
              <mxPoint x="349" y="142.06" />
            </Array>
          </mxGeometry>
        </mxCell>
        <mxCell id="pVZp7bhtt_Pac3a2WZZ1-43" value="&lt;font style=&quot;font-size: 12px;&quot;&gt;&lt;b style=&quot;&quot;&gt;Raw Data&lt;/b&gt;&lt;/font&gt;" style="text;strokeColor=none;fillColor=none;html=1;align=center;verticalAlign=middle;whiteSpace=wrap;rounded=0;fontSize=16;" vertex="1" parent="pVZp7bhtt_Pac3a2WZZ1-4">
          <mxGeometry x="40" y="147" width="60" height="30" as="geometry" />
        </mxCell>
        <mxCell id="pVZp7bhtt_Pac3a2WZZ1-44" value="&lt;font style=&quot;font-size: 12px;&quot;&gt;&lt;b style=&quot;&quot;&gt;Cleaned, Standardized Data&lt;/b&gt;&lt;/font&gt;" style="text;strokeColor=none;fillColor=none;html=1;align=center;verticalAlign=middle;whiteSpace=wrap;rounded=0;fontSize=16;" vertex="1" parent="pVZp7bhtt_Pac3a2WZZ1-4">
          <mxGeometry x="184" y="160" width="114" height="30" as="geometry" />
        </mxCell>
        <mxCell id="pVZp7bhtt_Pac3a2WZZ1-45" value="&lt;font style=&quot;font-size: 12px;&quot;&gt;&lt;b style=&quot;&quot;&gt;Business-Ready Data&lt;/b&gt;&lt;/font&gt;" style="text;strokeColor=none;fillColor=none;html=1;align=center;verticalAlign=middle;whiteSpace=wrap;rounded=0;fontSize=16;" vertex="1" parent="pVZp7bhtt_Pac3a2WZZ1-4">
          <mxGeometry x="372.5" y="160" width="114" height="30" as="geometry" />
        </mxCell>
        <mxCell id="pVZp7bhtt_Pac3a2WZZ1-49" value="" style="endArrow=none;html=1;rounded=0;fontSize=12;startSize=8;endSize=8;curved=1;exitX=-0.019;exitY=0.552;exitDx=0;exitDy=0;exitPerimeter=0;entryX=0.993;entryY=0.405;entryDx=0;entryDy=0;entryPerimeter=0;" edge="1" parent="pVZp7bhtt_Pac3a2WZZ1-4" target="pVZp7bhtt_Pac3a2WZZ1-12">
          <mxGeometry width="50" height="50" relative="1" as="geometry">
            <mxPoint x="10" y="212" as="sourcePoint" />
            <mxPoint x="130" y="212" as="targetPoint" />
          </mxGeometry>
        </mxCell>
        <mxCell id="pVZp7bhtt_Pac3a2WZZ1-50" value="&lt;div&gt;&lt;div&gt;&lt;br&gt;&lt;/div&gt;&lt;/div&gt;" style="text;strokeColor=none;fillColor=none;html=1;align=center;verticalAlign=middle;whiteSpace=wrap;rounded=0;fontSize=16;" vertex="1" parent="pVZp7bhtt_Pac3a2WZZ1-4">
          <mxGeometry x="12" y="336" width="118" height="42" as="geometry" />
        </mxCell>
        <mxCell id="pVZp7bhtt_Pac3a2WZZ1-54" value="" style="endArrow=none;html=1;rounded=0;fontSize=12;startSize=8;endSize=8;curved=1;exitX=-0.019;exitY=0.552;exitDx=0;exitDy=0;exitPerimeter=0;entryX=1.012;entryY=0.401;entryDx=0;entryDy=0;entryPerimeter=0;" edge="1" parent="pVZp7bhtt_Pac3a2WZZ1-4">
          <mxGeometry width="50" height="50" relative="1" as="geometry">
            <mxPoint x="164.93699999999995" y="213.02400000000011" as="sourcePoint" />
            <mxPoint x="339.0040000000001" y="213.0039999999999" as="targetPoint" />
            <Array as="points">
              <mxPoint x="231.34999999999997" y="213" />
            </Array>
          </mxGeometry>
        </mxCell>
        <mxCell id="pVZp7bhtt_Pac3a2WZZ1-59" value="&lt;font style=&quot;font-size: 12px;&quot;&gt;Object Type : &lt;span style=&quot;font-weight: normal;&quot;&gt;Tables&lt;/span&gt;&lt;/font&gt;" style="text;strokeColor=none;fillColor=none;html=1;fontSize=24;fontStyle=1;verticalAlign=middle;align=center;" vertex="1" parent="pVZp7bhtt_Pac3a2WZZ1-4">
          <mxGeometry x="177" y="205" width="100" height="40" as="geometry" />
        </mxCell>
        <mxCell id="pVZp7bhtt_Pac3a2WZZ1-60" value="&lt;font style=&quot;font-size: 12px;&quot;&gt;Load :&lt;/font&gt;" style="text;strokeColor=none;fillColor=none;html=1;fontSize=24;fontStyle=1;verticalAlign=middle;align=center;" vertex="1" parent="pVZp7bhtt_Pac3a2WZZ1-4">
          <mxGeometry x="144" y="229" width="100" height="40" as="geometry" />
        </mxCell>
        <mxCell id="pVZp7bhtt_Pac3a2WZZ1-61" value="&lt;ul&gt;&lt;li&gt;Batch Processing&lt;/li&gt;&lt;li&gt;Full Load&lt;/li&gt;&lt;li&gt;Truncate &amp;amp; Insert&lt;/li&gt;&lt;/ul&gt;" style="text;strokeColor=none;fillColor=none;html=1;whiteSpace=wrap;verticalAlign=middle;overflow=hidden;" vertex="1" parent="pVZp7bhtt_Pac3a2WZZ1-4">
          <mxGeometry x="160" y="253" width="138" height="64" as="geometry" />
        </mxCell>
        <mxCell id="pVZp7bhtt_Pac3a2WZZ1-63" value="&lt;ul&gt;&lt;li&gt;Data Cleansing&lt;/li&gt;&lt;li&gt;Data Standardization&lt;/li&gt;&lt;li&gt;Data Normalization&lt;/li&gt;&lt;li&gt;Derived Columns&lt;/li&gt;&lt;li&gt;Data Enrichment&lt;/li&gt;&lt;/ul&gt;" style="text;strokeColor=none;fillColor=none;html=1;whiteSpace=wrap;verticalAlign=middle;overflow=hidden;" vertex="1" parent="pVZp7bhtt_Pac3a2WZZ1-4">
          <mxGeometry x="156" y="325" width="161" height="90" as="geometry" />
        </mxCell>
        <mxCell id="pVZp7bhtt_Pac3a2WZZ1-64" value="&lt;span style=&quot;font-size: 12px;&quot;&gt;Transformations :&lt;/span&gt;" style="text;strokeColor=none;fillColor=none;html=1;fontSize=24;fontStyle=1;verticalAlign=middle;align=center;" vertex="1" parent="pVZp7bhtt_Pac3a2WZZ1-4">
          <mxGeometry x="170" y="303" width="100" height="40" as="geometry" />
        </mxCell>
        <mxCell id="pVZp7bhtt_Pac3a2WZZ1-65" value="&lt;font style=&quot;font-size: 12px;&quot;&gt;Data Model : &lt;span style=&quot;font-weight: normal;&quot;&gt;None (as-is)&lt;/span&gt;&lt;/font&gt;" style="text;strokeColor=none;fillColor=none;html=1;fontSize=24;fontStyle=1;verticalAlign=middle;align=center;" vertex="1" parent="pVZp7bhtt_Pac3a2WZZ1-4">
          <mxGeometry x="198.5" y="408" width="100" height="40" as="geometry" />
        </mxCell>
        <mxCell id="pVZp7bhtt_Pac3a2WZZ1-67" value="&lt;font style=&quot;font-size: 12px;&quot;&gt;Object Type : &lt;span style=&quot;font-weight: normal;&quot;&gt;Tables&lt;/span&gt;&lt;/font&gt;" style="text;strokeColor=none;fillColor=none;html=1;fontSize=24;fontStyle=1;verticalAlign=middle;align=center;" vertex="1" parent="pVZp7bhtt_Pac3a2WZZ1-4">
          <mxGeometry x="20" y="205" width="100" height="40" as="geometry" />
        </mxCell>
        <mxCell id="pVZp7bhtt_Pac3a2WZZ1-68" value="&lt;ul&gt;&lt;li&gt;Batch Processing&lt;/li&gt;&lt;li&gt;Full Load&lt;/li&gt;&lt;li&gt;Truncate &amp;amp; Insert&lt;/li&gt;&lt;/ul&gt;" style="text;strokeColor=none;fillColor=none;html=1;whiteSpace=wrap;verticalAlign=middle;overflow=hidden;" vertex="1" parent="pVZp7bhtt_Pac3a2WZZ1-4">
          <mxGeometry x="-10" y="249" width="138" height="64" as="geometry" />
        </mxCell>
        <mxCell id="pVZp7bhtt_Pac3a2WZZ1-70" value="&lt;font style=&quot;font-size: 12px;&quot;&gt;Load :&lt;/font&gt;" style="text;strokeColor=none;fillColor=none;html=1;fontSize=24;fontStyle=1;verticalAlign=middle;align=center;" vertex="1" parent="pVZp7bhtt_Pac3a2WZZ1-4">
          <mxGeometry x="-15" y="229" width="100" height="40" as="geometry" />
        </mxCell>
        <mxCell id="pVZp7bhtt_Pac3a2WZZ1-71" value="&lt;span style=&quot;font-size: 12px;&quot;&gt;Transformations&lt;/span&gt;" style="text;strokeColor=none;fillColor=none;html=1;fontSize=24;fontStyle=1;verticalAlign=middle;align=center;" vertex="1" parent="pVZp7bhtt_Pac3a2WZZ1-4">
          <mxGeometry x="20" y="303" width="100" height="40" as="geometry" />
        </mxCell>
        <mxCell id="pVZp7bhtt_Pac3a2WZZ1-73" value="&lt;font style=&quot;font-size: 12px;&quot;&gt;Data Model : &lt;span style=&quot;font-weight: normal;&quot;&gt;None (as-is)&lt;/span&gt;&lt;/font&gt;" style="text;strokeColor=none;fillColor=none;html=1;fontSize=24;fontStyle=1;verticalAlign=middle;align=center;" vertex="1" parent="pVZp7bhtt_Pac3a2WZZ1-4">
          <mxGeometry x="34" y="343" width="100" height="40" as="geometry" />
        </mxCell>
        <mxCell id="pVZp7bhtt_Pac3a2WZZ1-38" value="" style="shape=flexArrow;endArrow=classic;html=1;rounded=0;fontSize=12;startSize=8;endSize=8;curved=1;entryX=0.158;entryY=0.455;entryDx=0;entryDy=0;entryPerimeter=0;fillColor=#dae8fc;strokeColor=#6c8ebf;" edge="1" parent="pVZp7bhtt_Pac3a2WZZ1-4">
          <mxGeometry width="50" height="50" relative="1" as="geometry">
            <mxPoint x="-31.959999999999994" y="140.06" as="sourcePoint" />
            <mxPoint x="34.00000000000003" y="140.00000000000006" as="targetPoint" />
            <Array as="points">
              <mxPoint x="6.039999999999992" y="140.06" />
            </Array>
          </mxGeometry>
        </mxCell>
        <mxCell id="pVZp7bhtt_Pac3a2WZZ1-5" value="Data Warehouse" style="rounded=0;whiteSpace=wrap;html=1;fillColor=default;fontSize=18;strokeColor=none;" vertex="1" parent="pVZp7bhtt_Pac3a2WZZ1-4">
          <mxGeometry x="161.5" y="-18" width="184" height="29" as="geometry" />
        </mxCell>
        <mxCell id="pVZp7bhtt_Pac3a2WZZ1-77" value="" style="endArrow=none;html=1;rounded=0;fontSize=12;startSize=8;endSize=8;curved=1;exitX=-0.019;exitY=0.552;exitDx=0;exitDy=0;exitPerimeter=0;" edge="1" parent="pVZp7bhtt_Pac3a2WZZ1-4">
          <mxGeometry width="50" height="50" relative="1" as="geometry">
            <mxPoint x="347.93699999999995" y="213.02400000000011" as="sourcePoint" />
            <mxPoint x="513" y="213" as="targetPoint" />
            <Array as="points">
              <mxPoint x="414.34999999999997" y="213" />
            </Array>
          </mxGeometry>
        </mxCell>
        <mxCell id="pVZp7bhtt_Pac3a2WZZ1-78" value="&lt;font style=&quot;font-size: 12px;&quot;&gt;Object Type : &lt;span style=&quot;font-weight: normal;&quot;&gt;Views&lt;/span&gt;&lt;/font&gt;" style="text;strokeColor=none;fillColor=none;html=1;fontSize=24;fontStyle=1;verticalAlign=middle;align=center;" vertex="1" parent="pVZp7bhtt_Pac3a2WZZ1-4">
          <mxGeometry x="359" y="205" width="126" height="40" as="geometry" />
        </mxCell>
        <mxCell id="pVZp7bhtt_Pac3a2WZZ1-80" value="&lt;font style=&quot;font-size: 12px;&quot;&gt;No Load :&lt;/font&gt;" style="text;strokeColor=none;fillColor=none;html=1;fontSize=24;fontStyle=1;verticalAlign=middle;align=center;" vertex="1" parent="pVZp7bhtt_Pac3a2WZZ1-4">
          <mxGeometry x="354.5" y="229" width="100" height="40" as="geometry" />
        </mxCell>
        <mxCell id="pVZp7bhtt_Pac3a2WZZ1-81" value="&lt;span style=&quot;font-size: 12px;&quot;&gt;Transformations :&lt;/span&gt;" style="text;strokeColor=none;fillColor=none;html=1;fontSize=24;fontStyle=1;verticalAlign=middle;align=center;" vertex="1" parent="pVZp7bhtt_Pac3a2WZZ1-4">
          <mxGeometry x="357" y="261" width="100" height="40" as="geometry" />
        </mxCell>
        <mxCell id="pVZp7bhtt_Pac3a2WZZ1-82" value="&lt;ul&gt;&lt;li&gt;Data Integrations&lt;/li&gt;&lt;li&gt;Aggregation&lt;/li&gt;&lt;li&gt;Business Logics&lt;/li&gt;&lt;/ul&gt;" style="text;strokeColor=none;fillColor=none;html=1;whiteSpace=wrap;verticalAlign=middle;overflow=hidden;" vertex="1" parent="pVZp7bhtt_Pac3a2WZZ1-4">
          <mxGeometry x="335" y="278" width="161" height="86" as="geometry" />
        </mxCell>
        <mxCell id="pVZp7bhtt_Pac3a2WZZ1-83" value="&lt;ul&gt;&lt;li&gt;Star Schema&lt;/li&gt;&lt;li&gt;Fiat Table&lt;/li&gt;&lt;li&gt;Aggregated Table&lt;/li&gt;&lt;/ul&gt;" style="text;strokeColor=none;fillColor=none;html=1;whiteSpace=wrap;verticalAlign=middle;overflow=hidden;" vertex="1" parent="pVZp7bhtt_Pac3a2WZZ1-4">
          <mxGeometry x="339" y="366" width="161" height="86" as="geometry" />
        </mxCell>
        <mxCell id="pVZp7bhtt_Pac3a2WZZ1-84" value="&lt;span style=&quot;font-size: 12px;&quot;&gt;Data Model :&lt;/span&gt;" style="text;strokeColor=none;fillColor=none;html=1;fontSize=24;fontStyle=1;verticalAlign=middle;align=center;" vertex="1" parent="pVZp7bhtt_Pac3a2WZZ1-4">
          <mxGeometry x="361" y="350" width="100" height="40" as="geometry" />
        </mxCell>
        <mxCell id="DOv89-SnYFXpJo4EF_KC-1" value="&lt;font style=&quot;font-size: 11px;&quot;&gt;Stored Procedure&lt;/font&gt;" style="text;strokeColor=none;fillColor=none;html=1;align=center;verticalAlign=middle;whiteSpace=wrap;rounded=0;fontSize=16;" vertex="1" parent="pVZp7bhtt_Pac3a2WZZ1-4">
          <mxGeometry x="32.5" y="50" width="97.5" height="30" as="geometry" />
        </mxCell>
        <mxCell id="DOv89-SnYFXpJo4EF_KC-42" value="&lt;font style=&quot;font-size: 11px;&quot;&gt;Stored Procedure&lt;/font&gt;" style="text;strokeColor=none;fillColor=none;html=1;align=center;verticalAlign=middle;whiteSpace=wrap;rounded=0;fontSize=16;" vertex="1" parent="pVZp7bhtt_Pac3a2WZZ1-4">
          <mxGeometry x="196" y="50" width="97.5" height="30" as="geometry" />
        </mxCell>
        <mxCell id="pVZp7bhtt_Pac3a2WZZ1-6" value="" style="rounded=0;whiteSpace=wrap;html=1;fillColor=none;dashed=1;strokeColor=light-dark(#4f4f4f, #ededed);" vertex="1" parent="1">
          <mxGeometry x="678" y="-462" width="143" height="470" as="geometry" />
        </mxCell>
        <mxCell id="pVZp7bhtt_Pac3a2WZZ1-7" value="Consume" style="rounded=0;whiteSpace=wrap;html=1;fillColor=default;fontSize=18;strokeColor=none;" vertex="1" parent="1">
          <mxGeometry x="678" y="-479" width="120" height="29" as="geometry" />
        </mxCell>
        <mxCell id="pVZp7bhtt_Pac3a2WZZ1-20" value="" style="image;aspect=fixed;html=1;points=[];align=center;fontSize=10;image=img/lib/azure2/general/Folder_Blank.svg;" vertex="1" parent="1">
          <mxGeometry x="46.67" y="-387" width="35.73" height="29" as="geometry" />
        </mxCell>
        <mxCell id="pVZp7bhtt_Pac3a2WZZ1-21" value="" style="image;aspect=fixed;html=1;points=[];align=center;fontSize=12;image=img/lib/azure2/general/File.svg;" vertex="1" parent="1">
          <mxGeometry x="66.97999999999999" y="-372" width="15.42" height="19" as="geometry" />
        </mxCell>
        <mxCell id="pVZp7bhtt_Pac3a2WZZ1-22" value="CRM" style="text;strokeColor=none;fillColor=none;html=1;align=center;verticalAlign=middle;whiteSpace=wrap;rounded=0;fontSize=8;fontStyle=1" vertex="1" parent="1">
          <mxGeometry x="31" y="-358" width="43" height="9" as="geometry" />
        </mxCell>
        <mxCell id="pVZp7bhtt_Pac3a2WZZ1-23" value="" style="image;aspect=fixed;html=1;points=[];align=center;fontSize=10;image=img/lib/azure2/general/Folder_Blank.svg;" vertex="1" parent="1">
          <mxGeometry x="46.67" y="-328" width="33.27" height="27" as="geometry" />
        </mxCell>
        <mxCell id="pVZp7bhtt_Pac3a2WZZ1-28" value="" style="image;aspect=fixed;html=1;points=[];align=center;fontSize=12;image=img/lib/azure2/general/File.svg;" vertex="1" parent="1">
          <mxGeometry x="66.97999999999999" y="-310" width="15.42" height="19" as="geometry" />
        </mxCell>
        <mxCell id="pVZp7bhtt_Pac3a2WZZ1-33" value="" style="endArrow=none;html=1;rounded=0;fontSize=12;startSize=8;endSize=8;curved=1;exitX=-0.019;exitY=0.552;exitDx=0;exitDy=0;exitPerimeter=0;entryX=0.992;entryY=0.552;entryDx=0;entryDy=0;entryPerimeter=0;" edge="1" parent="1">
          <mxGeometry width="50" height="50" relative="1" as="geometry">
            <mxPoint x="5.606999999999989" y="-243.97599999999989" as="sourcePoint" />
            <mxPoint x="134.00400000000005" y="-243.97599999999989" as="targetPoint" />
            <Array as="points">
              <mxPoint x="72.02" y="-244" />
            </Array>
          </mxGeometry>
        </mxCell>
        <mxCell id="pVZp7bhtt_Pac3a2WZZ1-34" value="&lt;font&gt;&lt;b&gt;Object Type :&lt;/b&gt;&amp;nbsp;&lt;/font&gt;&lt;div&gt;&lt;font&gt;&lt;br&gt;&lt;/font&gt;&lt;/div&gt;&lt;div&gt;&lt;font&gt;CSV Files&lt;/font&gt;&lt;div&gt;&lt;br&gt;&lt;div&gt;&lt;font&gt;&lt;b&gt;Interface :&amp;nbsp;&lt;/b&gt;&lt;/font&gt;&lt;/div&gt;&lt;div&gt;&lt;font&gt;&lt;br&gt;&lt;/font&gt;&lt;/div&gt;&lt;div&gt;&lt;font&gt;Files in Folder&lt;/font&gt;&lt;/div&gt;&lt;/div&gt;&lt;/div&gt;" style="text;strokeColor=none;fillColor=none;html=1;align=center;verticalAlign=middle;whiteSpace=wrap;rounded=0;fontSize=14;" vertex="1" parent="1">
          <mxGeometry x="-18" y="-179" width="140" height="41" as="geometry" />
        </mxCell>
        <mxCell id="pVZp7bhtt_Pac3a2WZZ1-42" value="" style="shape=flexArrow;endArrow=classic;html=1;rounded=0;fontSize=12;startSize=8;endSize=8;curved=1;entryX=0.158;entryY=0.455;entryDx=0;entryDy=0;entryPerimeter=0;fillColor=#dae8fc;strokeColor=#6c8ebf;" edge="1" parent="1">
          <mxGeometry width="50" height="50" relative="1" as="geometry">
            <mxPoint x="640" y="-309.94" as="sourcePoint" />
            <mxPoint x="705.96" y="-309.99999999999994" as="targetPoint" />
            <Array as="points">
              <mxPoint x="678" y="-309.94" />
            </Array>
          </mxGeometry>
        </mxCell>
        <mxCell id="pVZp7bhtt_Pac3a2WZZ1-56" value="ERP" style="text;strokeColor=none;fillColor=none;html=1;align=center;verticalAlign=middle;whiteSpace=wrap;rounded=0;fontSize=8;fontStyle=1" vertex="1" parent="1">
          <mxGeometry x="31" y="-301" width="43" height="9" as="geometry" />
        </mxCell>
        <mxCell id="pVZp7bhtt_Pac3a2WZZ1-85" value="" style="image;aspect=fixed;html=1;points=[];align=center;fontSize=12;image=img/lib/azure2/analytics/Power_BI_Embedded.svg;" vertex="1" parent="1">
          <mxGeometry x="697" y="-372" width="51" height="68" as="geometry" />
        </mxCell>
        <mxCell id="pVZp7bhtt_Pac3a2WZZ1-86" value="" style="verticalLabelPosition=bottom;sketch=0;aspect=fixed;html=1;verticalAlign=top;strokeColor=none;align=center;outlineConnect=0;shape=mxgraph.citrix.reporting;" vertex="1" parent="1">
          <mxGeometry x="753" y="-373" width="61.5" height="69" as="geometry" />
        </mxCell>
        <mxCell id="pVZp7bhtt_Pac3a2WZZ1-87" value="&lt;font style=&quot;font-size: 12px;&quot;&gt;&lt;b style=&quot;&quot;&gt;BI &amp;amp; reporting&lt;/b&gt;&lt;/font&gt;" style="text;strokeColor=none;fillColor=none;html=1;align=center;verticalAlign=middle;whiteSpace=wrap;rounded=0;fontSize=16;" vertex="1" parent="1">
          <mxGeometry x="709" y="-306" width="99" height="30" as="geometry" />
        </mxCell>
        <mxCell id="pVZp7bhtt_Pac3a2WZZ1-88" value="" style="points=[];aspect=fixed;html=1;align=center;shadow=0;dashed=0;fillColor=#FF6A00;strokeColor=none;shape=mxgraph.alibaba_cloud.sqlserver;" vertex="1" parent="1">
          <mxGeometry x="730.2" y="-240" width="39.6" height="54.900000000000006" as="geometry" />
        </mxCell>
        <mxCell id="pVZp7bhtt_Pac3a2WZZ1-89" value="&lt;font style=&quot;font-size: 12px;&quot;&gt;SQL Queries&lt;/font&gt;" style="text;strokeColor=none;fillColor=none;html=1;align=center;verticalAlign=middle;whiteSpace=wrap;rounded=0;fontSize=16;fontStyle=1" vertex="1" parent="1">
          <mxGeometry x="720.5" y="-185.1" width="76" height="30" as="geometry" />
        </mxCell>
        <mxCell id="pVZp7bhtt_Pac3a2WZZ1-90" value="" style="image;sketch=0;aspect=fixed;html=1;points=[];align=center;fontSize=12;image=img/lib/mscae/Cognitive_Services.svg;" vertex="1" parent="1">
          <mxGeometry x="725" y="-108" width="50" height="30" as="geometry" />
        </mxCell>
        <mxCell id="pVZp7bhtt_Pac3a2WZZ1-92" value="&lt;font style=&quot;font-size: 12px;&quot;&gt;Machine Learning&lt;/font&gt;" style="text;strokeColor=none;fillColor=none;html=1;align=center;verticalAlign=middle;whiteSpace=wrap;rounded=0;fontSize=16;" vertex="1" parent="1">
          <mxGeometry x="705" y="-78" width="101" height="30" as="geometry" />
        </mxCell>
        <mxCell id="8EI9abZeYAK8cdlUzPf_-3" value="Definition" style="rounded=1;whiteSpace=wrap;html=1;fontStyle=1;fontFamily=Helvetica;fontSize=16;" vertex="1" parent="1">
          <mxGeometry x="-24" y="114" width="162" height="47" as="geometry" />
        </mxCell>
        <mxCell id="8EI9abZeYAK8cdlUzPf_-4" value="Objective" style="rounded=1;whiteSpace=wrap;html=1;fontStyle=1;fontFamily=Helvetica;fontSize=16;" vertex="1" parent="1">
          <mxGeometry x="-24" y="168" width="162" height="47" as="geometry" />
        </mxCell>
        <mxCell id="8EI9abZeYAK8cdlUzPf_-5" value="Object Type" style="rounded=1;whiteSpace=wrap;html=1;fontStyle=1;fontFamily=Helvetica;fontSize=16;" vertex="1" parent="1">
          <mxGeometry x="-24" y="221" width="162" height="47" as="geometry" />
        </mxCell>
        <mxCell id="8EI9abZeYAK8cdlUzPf_-6" value="Load Method" style="rounded=1;whiteSpace=wrap;html=1;fontStyle=1;fontFamily=Helvetica;fontSize=16;" vertex="1" parent="1">
          <mxGeometry x="-24" y="275" width="162" height="47" as="geometry" />
        </mxCell>
        <mxCell id="8EI9abZeYAK8cdlUzPf_-7" value="Data&lt;div&gt;Transformation&lt;/div&gt;" style="rounded=1;whiteSpace=wrap;html=1;fontStyle=1;fontFamily=Helvetica;fontSize=16;" vertex="1" parent="1">
          <mxGeometry x="-24" y="329" width="162" height="153" as="geometry" />
        </mxCell>
        <mxCell id="8EI9abZeYAK8cdlUzPf_-8" value="Data Modeling" style="rounded=1;whiteSpace=wrap;html=1;fontStyle=1;fontFamily=Helvetica;fontSize=16;" vertex="1" parent="1">
          <mxGeometry x="-28" y="490" width="162" height="47" as="geometry" />
        </mxCell>
        <mxCell id="8EI9abZeYAK8cdlUzPf_-9" value="Target Audience" style="rounded=1;whiteSpace=wrap;html=1;fontStyle=1;fontFamily=Helvetica;fontSize=16;" vertex="1" parent="1">
          <mxGeometry x="-29" y="545" width="162" height="47" as="geometry" />
        </mxCell>
        <mxCell id="8EI9abZeYAK8cdlUzPf_-10" value="Bronze Layer" style="rounded=1;whiteSpace=wrap;html=1;fontStyle=1;fontFamily=Helvetica;fontSize=16;fillColor=#ffe6cc;strokeColor=#d79b00;" vertex="1" parent="1">
          <mxGeometry x="181" y="62" width="162" height="47" as="geometry" />
        </mxCell>
        <mxCell id="8EI9abZeYAK8cdlUzPf_-11" value="&lt;b&gt;&lt;font style=&quot;font-size: 13px;&quot;&gt;Raw, unprocessed data as - is from sources&amp;nbsp;&lt;/font&gt;&lt;/b&gt;" style="rounded=0;whiteSpace=wrap;html=1;fillColor=#ffe6cc;strokeColor=#d79b00;" vertex="1" parent="1">
          <mxGeometry x="181" y="119" width="164" height="44" as="geometry" />
        </mxCell>
        <mxCell id="8EI9abZeYAK8cdlUzPf_-12" value="&lt;b&gt;&lt;font style=&quot;font-size: 13px;&quot;&gt;Traceability &amp;amp; Debugging&lt;/font&gt;&lt;/b&gt;" style="rounded=0;whiteSpace=wrap;html=1;fillColor=#ffe6cc;strokeColor=#d79b00;" vertex="1" parent="1">
          <mxGeometry x="180" y="168" width="164" height="44" as="geometry" />
        </mxCell>
        <mxCell id="8EI9abZeYAK8cdlUzPf_-13" value="&lt;b&gt;&lt;font style=&quot;font-size: 13px;&quot;&gt;Tables&lt;/font&gt;&lt;/b&gt;" style="rounded=0;whiteSpace=wrap;html=1;fillColor=#ffe6cc;strokeColor=#d79b00;" vertex="1" parent="1">
          <mxGeometry x="181" y="221" width="164" height="44" as="geometry" />
        </mxCell>
        <mxCell id="8EI9abZeYAK8cdlUzPf_-14" value="&lt;b&gt;&lt;font style=&quot;font-size: 13px;&quot;&gt;Full Load&lt;/font&gt;&lt;/b&gt;&lt;div&gt;&lt;b&gt;&lt;font style=&quot;font-size: 13px;&quot;&gt;(Truncate &amp;amp; Insert)&lt;/font&gt;&lt;/b&gt;&lt;/div&gt;" style="rounded=0;whiteSpace=wrap;html=1;fillColor=#ffe6cc;strokeColor=#d79b00;" vertex="1" parent="1">
          <mxGeometry x="181" y="275" width="164" height="44" as="geometry" />
        </mxCell>
        <mxCell id="8EI9abZeYAK8cdlUzPf_-15" value="&lt;span style=&quot;font-size: 13px;&quot;&gt;&lt;b&gt;None (as - is)&lt;/b&gt;&lt;/span&gt;" style="rounded=0;whiteSpace=wrap;html=1;fillColor=#ffe6cc;strokeColor=#d79b00;" vertex="1" parent="1">
          <mxGeometry x="181" y="329" width="164" height="153" as="geometry" />
        </mxCell>
        <mxCell id="8EI9abZeYAK8cdlUzPf_-16" value="&lt;b style=&quot;font-size: 13px;&quot;&gt;None (as - is)&lt;/b&gt;" style="rounded=0;whiteSpace=wrap;html=1;fillColor=#ffe6cc;strokeColor=#d79b00;" vertex="1" parent="1">
          <mxGeometry x="180" y="496" width="164" height="44" as="geometry" />
        </mxCell>
        <mxCell id="8EI9abZeYAK8cdlUzPf_-17" value="&lt;span style=&quot;font-size: 13px;&quot;&gt;&lt;b&gt;Data Engineers&lt;/b&gt;&lt;/span&gt;" style="rounded=0;whiteSpace=wrap;html=1;fillColor=#ffe6cc;strokeColor=#d79b00;" vertex="1" parent="1">
          <mxGeometry x="180" y="548" width="164" height="44" as="geometry" />
        </mxCell>
        <mxCell id="8EI9abZeYAK8cdlUzPf_-18" value="Silver Layer" style="rounded=1;whiteSpace=wrap;html=1;fontStyle=1;fontFamily=Helvetica;fontSize=16;fillColor=#f5f5f5;strokeColor=#666666;gradientColor=#b3b3b3;" vertex="1" parent="1">
          <mxGeometry x="378" y="62" width="162" height="47" as="geometry" />
        </mxCell>
        <mxCell id="8EI9abZeYAK8cdlUzPf_-19" value="&lt;b&gt;&lt;font style=&quot;font-size: 13px;&quot;&gt;Clean &amp;amp; standardized data&lt;/font&gt;&lt;/b&gt;" style="rounded=0;whiteSpace=wrap;html=1;fillColor=#f5f5f5;strokeColor=#666666;gradientColor=#b3b3b3;" vertex="1" parent="1">
          <mxGeometry x="376" y="119" width="164" height="44" as="geometry" />
        </mxCell>
        <mxCell id="8EI9abZeYAK8cdlUzPf_-20" value="&lt;b&gt;&lt;font style=&quot;font-size: 13px;&quot;&gt;(Intermediate Layer)&lt;/font&gt;&lt;/b&gt;&lt;div&gt;&lt;b&gt;&lt;font style=&quot;font-size: 13px;&quot;&gt;Prepare Data for Analysis&lt;/font&gt;&lt;/b&gt;&lt;/div&gt;" style="rounded=0;whiteSpace=wrap;html=1;fillColor=#f5f5f5;strokeColor=#666666;gradientColor=#b3b3b3;" vertex="1" parent="1">
          <mxGeometry x="376" y="168" width="164" height="44" as="geometry" />
        </mxCell>
        <mxCell id="8EI9abZeYAK8cdlUzPf_-21" value="&lt;b&gt;&lt;font style=&quot;font-size: 13px;&quot;&gt;Tables&lt;/font&gt;&lt;/b&gt;" style="rounded=0;whiteSpace=wrap;html=1;fillColor=#f5f5f5;strokeColor=#666666;gradientColor=#b3b3b3;" vertex="1" parent="1">
          <mxGeometry x="376" y="221" width="164" height="44" as="geometry" />
        </mxCell>
        <mxCell id="8EI9abZeYAK8cdlUzPf_-22" value="&lt;b&gt;&lt;font style=&quot;font-size: 13px;&quot;&gt;Full Load&lt;/font&gt;&lt;/b&gt;&lt;div&gt;&lt;b&gt;&lt;font style=&quot;font-size: 13px;&quot;&gt;(Truncate &amp;amp; Insert)&lt;/font&gt;&lt;/b&gt;&lt;/div&gt;" style="rounded=0;whiteSpace=wrap;html=1;fillColor=#f5f5f5;strokeColor=#666666;gradientColor=#b3b3b3;" vertex="1" parent="1">
          <mxGeometry x="376" y="275" width="164" height="44" as="geometry" />
        </mxCell>
        <mxCell id="8EI9abZeYAK8cdlUzPf_-23" value="&lt;div style=&quot;&quot;&gt;&lt;b style=&quot;font-size: 13px; background-color: transparent; color: light-dark(rgb(0, 0, 0), rgb(255, 255, 255));&quot;&gt;- Data Cleaning&lt;/b&gt;&lt;/div&gt;&lt;div&gt;&lt;span style=&quot;font-size: 13px;&quot;&gt;&lt;b&gt;- Data Standardization&lt;/b&gt;&lt;/span&gt;&lt;/div&gt;&lt;div style=&quot;&quot;&gt;&lt;span style=&quot;font-size: 13px;&quot;&gt;&lt;b&gt;- Data Normalization&lt;/b&gt;&lt;/span&gt;&lt;/div&gt;&lt;div style=&quot;&quot;&gt;&lt;span style=&quot;font-size: 13px;&quot;&gt;&lt;b&gt;- Derived Columns&lt;/b&gt;&lt;/span&gt;&lt;/div&gt;&lt;div style=&quot;&quot;&gt;&lt;span style=&quot;font-size: 13px;&quot;&gt;&lt;b&gt;- Data Enrichment&lt;/b&gt;&lt;/span&gt;&lt;/div&gt;" style="rounded=0;whiteSpace=wrap;html=1;fillColor=#f5f5f5;strokeColor=#666666;gradientColor=#b3b3b3;align=left;" vertex="1" parent="1">
          <mxGeometry x="376" y="329" width="164" height="153" as="geometry" />
        </mxCell>
        <mxCell id="8EI9abZeYAK8cdlUzPf_-24" value="&lt;b style=&quot;font-size: 13px;&quot;&gt;None (as - is)&lt;/b&gt;" style="rounded=0;whiteSpace=wrap;html=1;fillColor=#f5f5f5;strokeColor=#666666;gradientColor=#b3b3b3;" vertex="1" parent="1">
          <mxGeometry x="376" y="498" width="164" height="44" as="geometry" />
        </mxCell>
        <mxCell id="8EI9abZeYAK8cdlUzPf_-25" value="&lt;div style=&quot;text-align: left;&quot;&gt;&lt;b style=&quot;font-size: 13px; background-color: transparent; color: light-dark(rgb(0, 0, 0), rgb(255, 255, 255));&quot;&gt;- Data Analysis&lt;/b&gt;&lt;/div&gt;&lt;div style=&quot;text-align: left;&quot;&gt;&lt;span style=&quot;font-size: 13px;&quot;&gt;&lt;b&gt;- Data Engineers&lt;/b&gt;&lt;/span&gt;&lt;/div&gt;" style="rounded=0;whiteSpace=wrap;html=1;fillColor=#f5f5f5;strokeColor=#666666;gradientColor=#b3b3b3;" vertex="1" parent="1">
          <mxGeometry x="376" y="551" width="164" height="44" as="geometry" />
        </mxCell>
        <mxCell id="8EI9abZeYAK8cdlUzPf_-26" value="Gold Layer" style="rounded=1;whiteSpace=wrap;html=1;fontStyle=1;fontFamily=Helvetica;fontSize=16;fillColor=#ffcd28;strokeColor=#d79b00;gradientColor=#ffa500;" vertex="1" parent="1">
          <mxGeometry x="575" y="62" width="162" height="47" as="geometry" />
        </mxCell>
        <mxCell id="8EI9abZeYAK8cdlUzPf_-27" value="&lt;b&gt;&lt;font style=&quot;font-size: 13px;&quot;&gt;Business - Ready data&lt;/font&gt;&lt;/b&gt;" style="rounded=0;whiteSpace=wrap;html=1;fillColor=#ffcd28;strokeColor=#d79b00;gradientColor=#ffa500;" vertex="1" parent="1">
          <mxGeometry x="575" y="119" width="164" height="44" as="geometry" />
        </mxCell>
        <mxCell id="8EI9abZeYAK8cdlUzPf_-28" value="&lt;span style=&quot;font-size: 13px;&quot;&gt;&lt;b&gt;Provide data to be consumed for reporing&lt;/b&gt;&lt;/span&gt;" style="rounded=0;whiteSpace=wrap;html=1;fillColor=#ffcd28;strokeColor=#d79b00;gradientColor=#ffa500;" vertex="1" parent="1">
          <mxGeometry x="577" y="168" width="164" height="44" as="geometry" />
        </mxCell>
        <mxCell id="EV2n-CKlgunqHdXCwmMU-1" value="&lt;b&gt;&lt;font style=&quot;font-size: 13px;&quot;&gt;Views&lt;/font&gt;&lt;/b&gt;" style="rounded=0;whiteSpace=wrap;html=1;fillColor=#ffcd28;strokeColor=#d79b00;gradientColor=#ffa500;" vertex="1" parent="1">
          <mxGeometry x="575" y="222.5" width="164" height="44" as="geometry" />
        </mxCell>
        <mxCell id="EV2n-CKlgunqHdXCwmMU-2" value="&lt;div&gt;&lt;b&gt;&lt;font style=&quot;font-size: 13px;&quot;&gt;&lt;br&gt;&lt;/font&gt;&lt;/b&gt;&lt;/div&gt;&lt;b&gt;&lt;font style=&quot;font-size: 13px;&quot;&gt;No Load&lt;/font&gt;&lt;/b&gt;&lt;div&gt;&lt;br&gt;&lt;/div&gt;" style="rounded=0;whiteSpace=wrap;html=1;fillColor=#ffcd28;strokeColor=#d79b00;gradientColor=#ffa500;" vertex="1" parent="1">
          <mxGeometry x="575" y="276.5" width="164" height="44" as="geometry" />
        </mxCell>
        <mxCell id="EV2n-CKlgunqHdXCwmMU-3" value="&lt;div style=&quot;&quot;&gt;&lt;br&gt;&lt;/div&gt;&lt;div style=&quot;&quot;&gt;&lt;b style=&quot;font-size: 13px; background-color: transparent; color: light-dark(rgb(0, 0, 0), rgb(255, 255, 255));&quot;&gt;- Data Aggregation&lt;/b&gt;&lt;/div&gt;&lt;div style=&quot;&quot;&gt;&lt;span style=&quot;font-size: 13px;&quot;&gt;&lt;b&gt;- Data Normalization&lt;/b&gt;&lt;/span&gt;&lt;/div&gt;&lt;div style=&quot;&quot;&gt;&lt;span style=&quot;font-size: 13px;&quot;&gt;&lt;b&gt;- Business Logics&lt;/b&gt;&lt;/span&gt;&lt;/div&gt;&lt;div style=&quot;&quot;&gt;&lt;br&gt;&lt;/div&gt;" style="rounded=0;whiteSpace=wrap;html=1;fillColor=#ffcd28;strokeColor=#d79b00;gradientColor=#ffa500;align=left;" vertex="1" parent="1">
          <mxGeometry x="575" y="329" width="164" height="153" as="geometry" />
        </mxCell>
        <mxCell id="EV2n-CKlgunqHdXCwmMU-4" value="&lt;b style=&quot;font-size: 13px;&quot;&gt;- Star Schema&lt;/b&gt;&lt;div&gt;&lt;b style=&quot;font-size: 13px;&quot;&gt;- Aggreated Objects&lt;/b&gt;&lt;/div&gt;&lt;div&gt;&lt;b style=&quot;font-size: 13px;&quot;&gt;- Fiat Tables&lt;/b&gt;&lt;/div&gt;" style="rounded=0;whiteSpace=wrap;html=1;fillColor=#ffcd28;strokeColor=#d79b00;gradientColor=#ffa500;align=left;" vertex="1" parent="1">
          <mxGeometry x="575" y="496" width="164" height="44" as="geometry" />
        </mxCell>
        <mxCell id="EV2n-CKlgunqHdXCwmMU-5" value="&lt;div style=&quot;&quot;&gt;&lt;b style=&quot;font-size: 13px; background-color: transparent; color: light-dark(rgb(0, 0, 0), rgb(255, 255, 255));&quot;&gt;- Data Analysis&lt;/b&gt;&lt;/div&gt;&lt;div style=&quot;&quot;&gt;&lt;span style=&quot;font-size: 13px;&quot;&gt;&lt;b&gt;- Business Users&lt;/b&gt;&lt;/span&gt;&lt;/div&gt;" style="rounded=0;whiteSpace=wrap;html=1;fillColor=#ffcd28;strokeColor=#d79b00;gradientColor=#ffa500;align=left;" vertex="1" parent="1">
          <mxGeometry x="575" y="551" width="164" height="44" as="geometry" />
        </mxCell>
      </root>
    </mxGraphModel>
  </diagram>
  <diagram id="lORulkoxQ_DHlGErH-Z5" name="Page-2">
    <mxGraphModel dx="1143" dy="1048" grid="0" gridSize="10" guides="1" tooltips="1" connect="1" arrows="1" fold="1" page="0" pageScale="1" pageWidth="827" pageHeight="1169" math="0" shadow="0">
      <root>
        <mxCell id="0" />
        <mxCell id="1" parent="0" />
        <mxCell id="LofKzY288o8Fow2_L73x-1" value="DATA FLOW DIAGRAM" style="text;strokeColor=none;fillColor=none;html=1;align=center;verticalAlign=middle;whiteSpace=wrap;rounded=0;fontSize=16;fontStyle=1" vertex="1" parent="1">
          <mxGeometry x="-240" y="-70" width="204" height="30" as="geometry" />
        </mxCell>
        <mxCell id="3iZSax0tzFVAT04k9VRA-1" value="" style="rounded=0;whiteSpace=wrap;html=1;fillColor=none;dashed=1;strokeColor=light-dark(#4f4f4f, #ededed);" vertex="1" parent="1">
          <mxGeometry x="-240" y="15" width="162" height="466" as="geometry" />
        </mxCell>
        <mxCell id="swUfjLiaMCnos_Z2seXg-1" value="Sources" style="rounded=0;whiteSpace=wrap;html=1;fillColor=default;fontSize=18;strokeColor=none;" vertex="1" parent="1">
          <mxGeometry x="-216" width="120" height="29" as="geometry" />
        </mxCell>
        <mxCell id="W9CXLvD6YtcSmHh98Qk3-1" value="" style="image;aspect=fixed;html=1;points=[];align=center;fontSize=10;image=img/lib/azure2/general/Folder_Blank.svg;" vertex="1" parent="1">
          <mxGeometry x="-185.63" y="136" width="35.73" height="29" as="geometry" />
        </mxCell>
        <mxCell id="lWhfFMcbXBfI2DFQOSp_-1" value="CRM" style="text;strokeColor=none;fillColor=none;html=1;align=center;verticalAlign=middle;whiteSpace=wrap;rounded=0;fontSize=8;fontStyle=1" vertex="1" parent="1">
          <mxGeometry x="-180.5" y="165" width="43" height="9" as="geometry" />
        </mxCell>
        <mxCell id="TYEJ9TBYxfPLVUHjPLij-1" value="" style="image;aspect=fixed;html=1;points=[];align=center;fontSize=10;image=img/lib/azure2/general/Folder_Blank.svg;" vertex="1" parent="1">
          <mxGeometry x="-185.63" y="321" width="33.27" height="27" as="geometry" />
        </mxCell>
        <mxCell id="-jnFVSyaLs36-UyKgeif-1" value="ERP" style="text;strokeColor=none;fillColor=none;html=1;align=center;verticalAlign=middle;whiteSpace=wrap;rounded=0;fontSize=8;fontStyle=1" vertex="1" parent="1">
          <mxGeometry x="-185.63000000000002" y="348" width="43" height="9" as="geometry" />
        </mxCell>
        <mxCell id="iZPQ8_M9Yw_BL_PElNtF-1" value="" style="rounded=1;whiteSpace=wrap;html=1;fontSize=14;fillColor=#ffe6cc;strokeColor=#d79b00;" vertex="1" parent="1">
          <mxGeometry x="-58" y="35" width="147" height="446" as="geometry" />
        </mxCell>
        <mxCell id="x3ZGEitYRQ6kmbuv5AVO-1" value="Bronze Layer" style="rounded=1;whiteSpace=wrap;html=1;fontSize=14;fillColor=#ffe6cc;strokeColor=#d79b00;fontStyle=1" vertex="1" parent="1">
          <mxGeometry x="-44.5" width="120" height="27" as="geometry" />
        </mxCell>
        <mxCell id="x3ZGEitYRQ6kmbuv5AVO-2" value="crm_sales_details" style="rounded=1;whiteSpace=wrap;html=1;fontSize=14;fillColor=#ffe6cc;strokeColor=#d79b00;" vertex="1" parent="1">
          <mxGeometry x="-44.5" y="77" width="120" height="27" as="geometry" />
        </mxCell>
        <mxCell id="x3ZGEitYRQ6kmbuv5AVO-3" value="crm_cust_info" style="rounded=1;whiteSpace=wrap;html=1;fontSize=14;fillColor=#ffe6cc;strokeColor=#d79b00;" vertex="1" parent="1">
          <mxGeometry x="-44.5" y="132" width="120" height="27" as="geometry" />
        </mxCell>
        <mxCell id="x3ZGEitYRQ6kmbuv5AVO-4" value="crm_prd_info" style="rounded=1;whiteSpace=wrap;html=1;fontSize=14;fillColor=#ffe6cc;strokeColor=#d79b00;" vertex="1" parent="1">
          <mxGeometry x="-44.5" y="187" width="120" height="27" as="geometry" />
        </mxCell>
        <mxCell id="x3ZGEitYRQ6kmbuv5AVO-7" value="erp_cust_az12" style="rounded=1;whiteSpace=wrap;html=1;fontSize=14;fillColor=#ffe6cc;strokeColor=#d79b00;" vertex="1" parent="1">
          <mxGeometry x="-44.5" y="268" width="120" height="27" as="geometry" />
        </mxCell>
        <mxCell id="x3ZGEitYRQ6kmbuv5AVO-8" value="erp_loc_a101" style="rounded=1;whiteSpace=wrap;html=1;fontSize=14;fillColor=#ffe6cc;strokeColor=#d79b00;" vertex="1" parent="1">
          <mxGeometry x="-44.5" y="325" width="120" height="27" as="geometry" />
        </mxCell>
        <mxCell id="x3ZGEitYRQ6kmbuv5AVO-9" value="erp_px_cat_g1v2" style="rounded=1;whiteSpace=wrap;html=1;fontSize=14;fillColor=#ffe6cc;strokeColor=#d79b00;" vertex="1" parent="1">
          <mxGeometry x="-41" y="381" width="120" height="27" as="geometry" />
        </mxCell>
        <mxCell id="x3ZGEitYRQ6kmbuv5AVO-10" value="" style="endArrow=classic;html=1;rounded=0;fontSize=12;startSize=8;endSize=8;curved=1;entryX=0;entryY=0.75;entryDx=0;entryDy=0;" edge="1" parent="1" target="x3ZGEitYRQ6kmbuv5AVO-3">
          <mxGeometry width="50" height="50" relative="1" as="geometry">
            <mxPoint x="-149.9" y="154" as="sourcePoint" />
            <mxPoint x="-99.9" y="104" as="targetPoint" />
          </mxGeometry>
        </mxCell>
        <mxCell id="x3ZGEitYRQ6kmbuv5AVO-11" value="" style="endArrow=none;html=1;rounded=0;fontSize=12;startSize=8;endSize=8;curved=1;" edge="1" parent="1">
          <mxGeometry width="50" height="50" relative="1" as="geometry">
            <mxPoint x="-85" y="209" as="sourcePoint" />
            <mxPoint x="-85" y="82" as="targetPoint" />
          </mxGeometry>
        </mxCell>
        <mxCell id="x3ZGEitYRQ6kmbuv5AVO-12" value="" style="endArrow=classic;html=1;rounded=0;fontSize=12;startSize=8;endSize=8;curved=1;" edge="1" parent="1">
          <mxGeometry width="50" height="50" relative="1" as="geometry">
            <mxPoint x="-84" y="83" as="sourcePoint" />
            <mxPoint x="-41" y="83" as="targetPoint" />
          </mxGeometry>
        </mxCell>
        <mxCell id="x3ZGEitYRQ6kmbuv5AVO-14" value="" style="endArrow=classic;html=1;rounded=0;fontSize=12;startSize=8;endSize=8;curved=1;entryX=0;entryY=0.75;entryDx=0;entryDy=0;" edge="1" parent="1" target="x3ZGEitYRQ6kmbuv5AVO-4">
          <mxGeometry width="50" height="50" relative="1" as="geometry">
            <mxPoint x="-84" y="209" as="sourcePoint" />
            <mxPoint x="-34" y="159" as="targetPoint" />
          </mxGeometry>
        </mxCell>
        <mxCell id="x3ZGEitYRQ6kmbuv5AVO-15" value="" style="endArrow=none;html=1;rounded=0;fontSize=12;startSize=8;endSize=8;curved=1;" edge="1" parent="1">
          <mxGeometry width="50" height="50" relative="1" as="geometry">
            <mxPoint x="-86" y="402" as="sourcePoint" />
            <mxPoint x="-86" y="275" as="targetPoint" />
          </mxGeometry>
        </mxCell>
        <mxCell id="x3ZGEitYRQ6kmbuv5AVO-16" value="" style="endArrow=classic;html=1;rounded=0;fontSize=12;startSize=8;endSize=8;curved=1;entryX=0;entryY=0.75;entryDx=0;entryDy=0;" edge="1" parent="1">
          <mxGeometry width="50" height="50" relative="1" as="geometry">
            <mxPoint x="-152.36" y="342" as="sourcePoint" />
            <mxPoint x="-46.460000000000036" y="340" as="targetPoint" />
          </mxGeometry>
        </mxCell>
        <mxCell id="x3ZGEitYRQ6kmbuv5AVO-17" value="" style="endArrow=classic;html=1;rounded=0;fontSize=12;startSize=8;endSize=8;curved=1;entryX=0;entryY=0.75;entryDx=0;entryDy=0;" edge="1" parent="1">
          <mxGeometry width="50" height="50" relative="1" as="geometry">
            <mxPoint x="-87" y="402" as="sourcePoint" />
            <mxPoint x="-47" y="400" as="targetPoint" />
          </mxGeometry>
        </mxCell>
        <mxCell id="x3ZGEitYRQ6kmbuv5AVO-18" value="" style="endArrow=classic;html=1;rounded=0;fontSize=12;startSize=8;endSize=8;curved=1;" edge="1" parent="1">
          <mxGeometry width="50" height="50" relative="1" as="geometry">
            <mxPoint x="-87.5" y="276" as="sourcePoint" />
            <mxPoint x="-44.5" y="276" as="targetPoint" />
          </mxGeometry>
        </mxCell>
        <mxCell id="sJHIyEE3br1Yfp9ubM-s-1" value="" style="edgeStyle=none;curved=1;rounded=0;orthogonalLoop=1;jettySize=auto;html=1;fontSize=12;startSize=8;endSize=8;" edge="1" parent="1" source="ek0aVcEDWSfGz6cjXgyh-1" target="ek0aVcEDWSfGz6cjXgyh-13">
          <mxGeometry relative="1" as="geometry" />
        </mxCell>
        <mxCell id="ek0aVcEDWSfGz6cjXgyh-1" value="Silver Layer" style="rounded=1;whiteSpace=wrap;html=1;fontSize=14;fillColor=#f5f5f5;strokeColor=#666666;fontStyle=1;gradientColor=#b3b3b3;" vertex="1" parent="1">
          <mxGeometry x="135" width="120" height="27" as="geometry" />
        </mxCell>
        <mxCell id="ek0aVcEDWSfGz6cjXgyh-10" value="" style="rounded=1;whiteSpace=wrap;html=1;fontSize=14;fillColor=#f5f5f5;strokeColor=#666666;gradientColor=#b3b3b3;" vertex="1" parent="1">
          <mxGeometry x="116" y="35" width="147" height="446" as="geometry" />
        </mxCell>
        <mxCell id="ek0aVcEDWSfGz6cjXgyh-12" value="crm_sales_details" style="rounded=1;whiteSpace=wrap;html=1;fontSize=14;fillColor=#f5f5f5;strokeColor=#666666;gradientColor=#b3b3b3;" vertex="1" parent="1">
          <mxGeometry x="138.5" y="80" width="120" height="27" as="geometry" />
        </mxCell>
        <mxCell id="ek0aVcEDWSfGz6cjXgyh-13" value="crm_cust_info" style="rounded=1;whiteSpace=wrap;html=1;fontSize=14;fillColor=#f5f5f5;strokeColor=#666666;gradientColor=#b3b3b3;" vertex="1" parent="1">
          <mxGeometry x="138.5" y="132" width="120" height="27" as="geometry" />
        </mxCell>
        <mxCell id="ek0aVcEDWSfGz6cjXgyh-14" value="crm_prd_info" style="rounded=1;whiteSpace=wrap;html=1;fontSize=14;fillColor=#f5f5f5;strokeColor=#666666;gradientColor=#b3b3b3;" vertex="1" parent="1">
          <mxGeometry x="138.5" y="187" width="120" height="27" as="geometry" />
        </mxCell>
        <mxCell id="ek0aVcEDWSfGz6cjXgyh-15" value="erp_cust_az12" style="rounded=1;whiteSpace=wrap;html=1;fontSize=14;fillColor=#f5f5f5;strokeColor=#666666;gradientColor=#b3b3b3;" vertex="1" parent="1">
          <mxGeometry x="138.5" y="268" width="120" height="27" as="geometry" />
        </mxCell>
        <mxCell id="ek0aVcEDWSfGz6cjXgyh-16" value="erp_loc_a101" style="rounded=1;whiteSpace=wrap;html=1;fontSize=14;fillColor=#f5f5f5;strokeColor=#666666;gradientColor=#b3b3b3;" vertex="1" parent="1">
          <mxGeometry x="138.5" y="325" width="120" height="27" as="geometry" />
        </mxCell>
        <mxCell id="ek0aVcEDWSfGz6cjXgyh-17" value="erp_px_cat_g1v2" style="rounded=1;whiteSpace=wrap;html=1;fontSize=14;fillColor=#f5f5f5;strokeColor=#666666;gradientColor=#b3b3b3;" vertex="1" parent="1">
          <mxGeometry x="138.5" y="381" width="120" height="27" as="geometry" />
        </mxCell>
        <mxCell id="8LXb1mqGsAuGIJM0HZ9T-1" value="" style="endArrow=classic;html=1;rounded=0;fontSize=12;startSize=8;endSize=8;curved=1;entryX=0;entryY=0.5;entryDx=0;entryDy=0;" edge="1" parent="1" target="ek0aVcEDWSfGz6cjXgyh-12">
          <mxGeometry width="50" height="50" relative="1" as="geometry">
            <mxPoint x="75.5" y="94" as="sourcePoint" />
            <mxPoint x="125.5" y="44" as="targetPoint" />
            <Array as="points">
              <mxPoint x="106" y="94" />
            </Array>
          </mxGeometry>
        </mxCell>
        <mxCell id="8LXb1mqGsAuGIJM0HZ9T-3" value="" style="endArrow=classic;html=1;rounded=0;fontSize=12;startSize=8;endSize=8;curved=1;entryX=0;entryY=0.5;entryDx=0;entryDy=0;" edge="1" parent="1" target="ek0aVcEDWSfGz6cjXgyh-13">
          <mxGeometry width="50" height="50" relative="1" as="geometry">
            <mxPoint x="75.5" y="147" as="sourcePoint" />
            <mxPoint x="125.5" y="97" as="targetPoint" />
          </mxGeometry>
        </mxCell>
        <mxCell id="8LXb1mqGsAuGIJM0HZ9T-4" value="" style="endArrow=classic;html=1;rounded=0;fontSize=12;startSize=8;endSize=8;curved=1;entryX=0;entryY=0.5;entryDx=0;entryDy=0;" edge="1" parent="1" target="ek0aVcEDWSfGz6cjXgyh-14">
          <mxGeometry width="50" height="50" relative="1" as="geometry">
            <mxPoint x="75.5" y="202" as="sourcePoint" />
            <mxPoint x="125.5" y="152" as="targetPoint" />
          </mxGeometry>
        </mxCell>
        <mxCell id="8LXb1mqGsAuGIJM0HZ9T-5" value="" style="endArrow=classic;html=1;rounded=0;fontSize=12;startSize=8;endSize=8;curved=1;entryX=0;entryY=0.5;entryDx=0;entryDy=0;" edge="1" parent="1" target="ek0aVcEDWSfGz6cjXgyh-15">
          <mxGeometry width="50" height="50" relative="1" as="geometry">
            <mxPoint x="75.5" y="283" as="sourcePoint" />
            <mxPoint x="125.5" y="233" as="targetPoint" />
          </mxGeometry>
        </mxCell>
        <mxCell id="8LXb1mqGsAuGIJM0HZ9T-6" value="" style="endArrow=classic;html=1;rounded=0;fontSize=12;startSize=8;endSize=8;curved=1;entryX=0;entryY=0.5;entryDx=0;entryDy=0;" edge="1" parent="1" target="ek0aVcEDWSfGz6cjXgyh-16">
          <mxGeometry width="50" height="50" relative="1" as="geometry">
            <mxPoint x="75.5" y="341" as="sourcePoint" />
            <mxPoint x="125.5" y="291" as="targetPoint" />
          </mxGeometry>
        </mxCell>
        <mxCell id="8LXb1mqGsAuGIJM0HZ9T-7" value="" style="endArrow=classic;html=1;rounded=0;fontSize=12;startSize=8;endSize=8;curved=1;" edge="1" parent="1" target="ek0aVcEDWSfGz6cjXgyh-17">
          <mxGeometry width="50" height="50" relative="1" as="geometry">
            <mxPoint x="79" y="396" as="sourcePoint" />
            <mxPoint x="129" y="346" as="targetPoint" />
          </mxGeometry>
        </mxCell>
        <mxCell id="sJHIyEE3br1Yfp9ubM-s-3" value="" style="edgeStyle=none;curved=1;rounded=0;orthogonalLoop=1;jettySize=auto;html=1;fontSize=12;startSize=8;endSize=8;" edge="1" source="sJHIyEE3br1Yfp9ubM-s-4" target="sJHIyEE3br1Yfp9ubM-s-7" parent="1">
          <mxGeometry relative="1" as="geometry" />
        </mxCell>
        <mxCell id="sJHIyEE3br1Yfp9ubM-s-4" value="Gold Layer" style="rounded=1;whiteSpace=wrap;html=1;fontSize=14;fillColor=#ffcd28;strokeColor=#d79b00;fontStyle=1;gradientColor=#ffa500;" vertex="1" parent="1">
          <mxGeometry x="318" width="120" height="27" as="geometry" />
        </mxCell>
        <mxCell id="sJHIyEE3br1Yfp9ubM-s-5" value="" style="rounded=1;whiteSpace=wrap;html=1;fontSize=14;fillColor=#ffcd28;strokeColor=#d79b00;gradientColor=#ffa500;" vertex="1" parent="1">
          <mxGeometry x="308" y="35" width="147" height="446" as="geometry" />
        </mxCell>
        <mxCell id="sJHIyEE3br1Yfp9ubM-s-6" value="fact_sales" style="rounded=1;whiteSpace=wrap;html=1;fontSize=14;fillColor=#ffcd28;strokeColor=#d79b00;gradientColor=#ffa500;" vertex="1" parent="1">
          <mxGeometry x="321.5" y="105" width="120" height="27" as="geometry" />
        </mxCell>
        <mxCell id="sJHIyEE3br1Yfp9ubM-s-7" value="dim_customers" style="rounded=1;whiteSpace=wrap;html=1;fontSize=14;fillColor=#ffcd28;strokeColor=#d79b00;gradientColor=#ffa500;" vertex="1" parent="1">
          <mxGeometry x="325" y="231" width="120" height="27" as="geometry" />
        </mxCell>
        <mxCell id="sJHIyEE3br1Yfp9ubM-s-8" value="dim_products" style="rounded=1;whiteSpace=wrap;html=1;fontSize=14;fillColor=#ffcd28;strokeColor=#d79b00;gradientColor=#ffa500;" vertex="1" parent="1">
          <mxGeometry x="327" y="357" width="120" height="27" as="geometry" />
        </mxCell>
        <mxCell id="sJHIyEE3br1Yfp9ubM-s-12" style="edgeStyle=none;curved=1;rounded=0;orthogonalLoop=1;jettySize=auto;html=1;exitX=0.5;exitY=1;exitDx=0;exitDy=0;fontSize=12;startSize=8;endSize=8;" edge="1" parent="1" source="sJHIyEE3br1Yfp9ubM-s-7" target="sJHIyEE3br1Yfp9ubM-s-7">
          <mxGeometry relative="1" as="geometry" />
        </mxCell>
        <mxCell id="sJHIyEE3br1Yfp9ubM-s-13" value="" style="endArrow=classic;html=1;rounded=0;fontSize=12;startSize=8;endSize=8;curved=1;entryX=0;entryY=0.5;entryDx=0;entryDy=0;" edge="1" parent="1" target="sJHIyEE3br1Yfp9ubM-s-6">
          <mxGeometry width="50" height="50" relative="1" as="geometry">
            <mxPoint x="258.5" y="97" as="sourcePoint" />
            <mxPoint x="308.5" y="47" as="targetPoint" />
          </mxGeometry>
        </mxCell>
        <mxCell id="sJHIyEE3br1Yfp9ubM-s-14" value="" style="endArrow=classic;html=1;rounded=0;fontSize=12;startSize=8;endSize=8;curved=1;entryX=0;entryY=0.25;entryDx=0;entryDy=0;" edge="1" parent="1" target="sJHIyEE3br1Yfp9ubM-s-7">
          <mxGeometry width="50" height="50" relative="1" as="geometry">
            <mxPoint x="258.5" y="149" as="sourcePoint" />
            <mxPoint x="322" y="171" as="targetPoint" />
          </mxGeometry>
        </mxCell>
        <mxCell id="sJHIyEE3br1Yfp9ubM-s-15" value="" style="endArrow=classic;html=1;rounded=0;fontSize=12;startSize=8;endSize=8;curved=1;entryX=0;entryY=0.25;entryDx=0;entryDy=0;" edge="1" parent="1" target="sJHIyEE3br1Yfp9ubM-s-8">
          <mxGeometry width="50" height="50" relative="1" as="geometry">
            <mxPoint x="258.5" y="203" as="sourcePoint" />
            <mxPoint x="322" y="225" as="targetPoint" />
          </mxGeometry>
        </mxCell>
        <mxCell id="sJHIyEE3br1Yfp9ubM-s-16" value="" style="endArrow=classic;html=1;rounded=0;fontSize=12;startSize=8;endSize=8;curved=1;entryX=0;entryY=0.75;entryDx=0;entryDy=0;" edge="1" parent="1" target="sJHIyEE3br1Yfp9ubM-s-8">
          <mxGeometry width="50" height="50" relative="1" as="geometry">
            <mxPoint x="258.5" y="396" as="sourcePoint" />
            <mxPoint x="325" y="485" as="targetPoint" />
          </mxGeometry>
        </mxCell>
        <mxCell id="sJHIyEE3br1Yfp9ubM-s-17" value="" style="endArrow=classic;html=1;rounded=0;fontSize=12;startSize=8;endSize=8;curved=1;entryX=0;entryY=0.75;entryDx=0;entryDy=0;" edge="1" parent="1" target="sJHIyEE3br1Yfp9ubM-s-7">
          <mxGeometry width="50" height="50" relative="1" as="geometry">
            <mxPoint x="258.5" y="340" as="sourcePoint" />
            <mxPoint x="327" y="321" as="targetPoint" />
          </mxGeometry>
        </mxCell>
        <mxCell id="sJHIyEE3br1Yfp9ubM-s-19" value="" style="endArrow=classic;html=1;rounded=0;fontSize=12;startSize=8;endSize=8;curved=1;entryX=0;entryY=0.75;entryDx=0;entryDy=0;" edge="1" parent="1">
          <mxGeometry width="50" height="50" relative="1" as="geometry">
            <mxPoint x="258.5" y="272" as="sourcePoint" />
            <mxPoint x="327" y="253" as="targetPoint" />
          </mxGeometry>
        </mxCell>
      </root>
    </mxGraphModel>
  </diagram>
  <diagram id="QL49bxVmvCBq1RN4q-gt" name="Page-3">
    <mxGraphModel dx="1221" dy="952" grid="0" gridSize="10" guides="1" tooltips="1" connect="1" arrows="1" fold="1" page="0" pageScale="1" pageWidth="827" pageHeight="1169" math="0" shadow="0">
      <root>
        <mxCell id="0" />
        <mxCell id="1" parent="0" />
        <mxCell id="SEG5We8vUAw7SwNB0-mm-1" value="INTEGRATION MODEL" style="text;strokeColor=none;fillColor=none;html=1;align=center;verticalAlign=middle;whiteSpace=wrap;rounded=0;fontSize=16;fontStyle=1" vertex="1" parent="1">
          <mxGeometry x="-202" y="-68" width="194" height="30" as="geometry" />
        </mxCell>
        <mxCell id="SEG5We8vUAw7SwNB0-mm-2" value="how tables are related" style="text;strokeColor=none;fillColor=none;html=1;align=center;verticalAlign=middle;whiteSpace=wrap;rounded=0;fontSize=13;" vertex="1" parent="1">
          <mxGeometry x="-19" y="-64" width="170" height="30" as="geometry" />
        </mxCell>
        <mxCell id="SEG5We8vUAw7SwNB0-mm-3" value="crm_cust_infor" style="swimlane;fontStyle=0;childLayout=stackLayout;horizontal=1;startSize=30;horizontalStack=0;resizeParent=1;resizeParentMax=0;resizeLast=0;collapsible=1;marginBottom=0;whiteSpace=wrap;html=1;fillColor=#dae8fc;strokeColor=#6c8ebf;" vertex="1" parent="1">
          <mxGeometry x="3" y="218" width="140" height="90" as="geometry" />
        </mxCell>
        <mxCell id="SEG5We8vUAw7SwNB0-mm-4" value="cst_id" style="text;strokeColor=none;fillColor=none;align=left;verticalAlign=middle;spacingLeft=4;spacingRight=4;overflow=hidden;points=[[0,0.5],[1,0.5]];portConstraint=eastwest;rotatable=0;whiteSpace=wrap;html=1;" vertex="1" parent="SEG5We8vUAw7SwNB0-mm-3">
          <mxGeometry y="30" width="140" height="30" as="geometry" />
        </mxCell>
        <mxCell id="SEG5We8vUAw7SwNB0-mm-26" value="cst_key" style="text;strokeColor=none;fillColor=none;align=left;verticalAlign=middle;spacingLeft=4;spacingRight=4;overflow=hidden;points=[[0,0.5],[1,0.5]];portConstraint=eastwest;rotatable=0;whiteSpace=wrap;html=1;" vertex="1" parent="SEG5We8vUAw7SwNB0-mm-3">
          <mxGeometry y="60" width="140" height="30" as="geometry" />
        </mxCell>
        <mxCell id="SEG5We8vUAw7SwNB0-mm-7" value="&lt;font style=&quot;font-size: 11px;&quot;&gt;Customer information&lt;/font&gt;" style="text;strokeColor=none;fillColor=none;html=1;align=center;verticalAlign=middle;whiteSpace=wrap;rounded=0;fontSize=16;" vertex="1" parent="1">
          <mxGeometry x="17" y="188" width="118" height="30" as="geometry" />
        </mxCell>
        <mxCell id="SEG5We8vUAw7SwNB0-mm-9" value="crm_prd_infor" style="swimlane;fontStyle=0;childLayout=stackLayout;horizontal=1;startSize=30;horizontalStack=0;resizeParent=1;resizeParentMax=0;resizeLast=0;collapsible=1;marginBottom=0;whiteSpace=wrap;html=1;fillColor=#dae8fc;strokeColor=#6c8ebf;" vertex="1" parent="1">
          <mxGeometry x="3" y="94" width="140" height="60" as="geometry" />
        </mxCell>
        <mxCell id="SEG5We8vUAw7SwNB0-mm-10" value="prd_key" style="text;strokeColor=none;fillColor=none;align=left;verticalAlign=middle;spacingLeft=4;spacingRight=4;overflow=hidden;points=[[0,0.5],[1,0.5]];portConstraint=eastwest;rotatable=0;whiteSpace=wrap;html=1;" vertex="1" parent="SEG5We8vUAw7SwNB0-mm-9">
          <mxGeometry y="30" width="140" height="30" as="geometry" />
        </mxCell>
        <mxCell id="SEG5We8vUAw7SwNB0-mm-11" value="&lt;font style=&quot;font-size: 11px;&quot;&gt;Current &amp;amp; history Product information&lt;/font&gt;" style="text;strokeColor=none;fillColor=none;html=1;align=center;verticalAlign=middle;whiteSpace=wrap;rounded=0;fontSize=16;" vertex="1" parent="1">
          <mxGeometry x="3" y="59" width="140" height="30" as="geometry" />
        </mxCell>
        <mxCell id="SEG5We8vUAw7SwNB0-mm-13" value="crm_sales_details" style="swimlane;fontStyle=0;childLayout=stackLayout;horizontal=1;startSize=30;horizontalStack=0;resizeParent=1;resizeParentMax=0;resizeLast=0;collapsible=1;marginBottom=0;whiteSpace=wrap;html=1;fillColor=#dae8fc;strokeColor=#6c8ebf;" vertex="1" parent="1">
          <mxGeometry x="-252" y="140" width="140" height="90" as="geometry" />
        </mxCell>
        <mxCell id="SEG5We8vUAw7SwNB0-mm-14" value="prd_key" style="text;strokeColor=none;fillColor=none;align=left;verticalAlign=middle;spacingLeft=4;spacingRight=4;overflow=hidden;points=[[0,0.5],[1,0.5]];portConstraint=eastwest;rotatable=0;whiteSpace=wrap;html=1;" vertex="1" parent="SEG5We8vUAw7SwNB0-mm-13">
          <mxGeometry y="30" width="140" height="30" as="geometry" />
        </mxCell>
        <mxCell id="SEG5We8vUAw7SwNB0-mm-19" value="cst_id" style="text;strokeColor=none;fillColor=none;align=left;verticalAlign=middle;spacingLeft=4;spacingRight=4;overflow=hidden;points=[[0,0.5],[1,0.5]];portConstraint=eastwest;rotatable=0;whiteSpace=wrap;html=1;" vertex="1" parent="SEG5We8vUAw7SwNB0-mm-13">
          <mxGeometry y="60" width="140" height="30" as="geometry" />
        </mxCell>
        <mxCell id="SEG5We8vUAw7SwNB0-mm-15" value="&lt;font style=&quot;font-size: 11px;&quot;&gt;Transactional records about sales &amp;amp; orders&lt;/font&gt;" style="text;strokeColor=none;fillColor=none;html=1;align=center;verticalAlign=middle;whiteSpace=wrap;rounded=0;fontSize=16;" vertex="1" parent="1">
          <mxGeometry x="-252" y="104" width="140" height="30" as="geometry" />
        </mxCell>
        <mxCell id="SEG5We8vUAw7SwNB0-mm-20" value="" style="edgeStyle=elbowEdgeStyle;elbow=horizontal;endArrow=classic;html=1;curved=0;rounded=0;endSize=8;startSize=8;fontSize=12;entryX=0;entryY=0.5;entryDx=0;entryDy=0;" edge="1" parent="1" target="SEG5We8vUAw7SwNB0-mm-4">
          <mxGeometry width="50" height="50" relative="1" as="geometry">
            <mxPoint x="-112" y="216" as="sourcePoint" />
            <mxPoint x="-62" y="166" as="targetPoint" />
          </mxGeometry>
        </mxCell>
        <mxCell id="SEG5We8vUAw7SwNB0-mm-22" value="" style="edgeStyle=elbowEdgeStyle;elbow=horizontal;endArrow=classic;html=1;curved=0;rounded=0;endSize=8;startSize=8;fontSize=12;entryX=0;entryY=0.5;entryDx=0;entryDy=0;" edge="1" parent="1" target="SEG5We8vUAw7SwNB0-mm-10">
          <mxGeometry width="50" height="50" relative="1" as="geometry">
            <mxPoint x="-110" y="184" as="sourcePoint" />
            <mxPoint x="-60" y="134" as="targetPoint" />
          </mxGeometry>
        </mxCell>
        <mxCell id="SEG5We8vUAw7SwNB0-mm-24" value="erp_cust_az12" style="swimlane;fontStyle=0;childLayout=stackLayout;horizontal=1;startSize=30;horizontalStack=0;resizeParent=1;resizeParentMax=0;resizeLast=0;collapsible=1;marginBottom=0;whiteSpace=wrap;html=1;fillColor=#fff2cc;strokeColor=#d6b656;" vertex="1" parent="1">
          <mxGeometry x="257" y="150" width="140" height="60" as="geometry" />
        </mxCell>
        <mxCell id="SEG5We8vUAw7SwNB0-mm-25" value="cid" style="text;strokeColor=none;fillColor=none;align=left;verticalAlign=middle;spacingLeft=4;spacingRight=4;overflow=hidden;points=[[0,0.5],[1,0.5]];portConstraint=eastwest;rotatable=0;whiteSpace=wrap;html=1;" vertex="1" parent="SEG5We8vUAw7SwNB0-mm-24">
          <mxGeometry y="30" width="140" height="30" as="geometry" />
        </mxCell>
        <mxCell id="SEG5We8vUAw7SwNB0-mm-27" value="" style="edgeStyle=elbowEdgeStyle;elbow=horizontal;endArrow=classic;html=1;curved=0;rounded=0;endSize=8;startSize=8;fontSize=12;entryX=1;entryY=0.5;entryDx=0;entryDy=0;exitX=0;exitY=0.5;exitDx=0;exitDy=0;" edge="1" parent="1" source="SEG5We8vUAw7SwNB0-mm-25" target="SEG5We8vUAw7SwNB0-mm-26">
          <mxGeometry width="50" height="50" relative="1" as="geometry">
            <mxPoint x="226" y="300" as="sourcePoint" />
            <mxPoint x="276" y="250" as="targetPoint" />
          </mxGeometry>
        </mxCell>
        <mxCell id="SEG5We8vUAw7SwNB0-mm-28" value="&lt;font style=&quot;font-size: 11px;&quot;&gt;Extra Customer information&lt;/font&gt;" style="text;strokeColor=none;fillColor=none;html=1;align=center;verticalAlign=middle;whiteSpace=wrap;rounded=0;fontSize=16;" vertex="1" parent="1">
          <mxGeometry x="262" y="117" width="118" height="30" as="geometry" />
        </mxCell>
        <mxCell id="SEG5We8vUAw7SwNB0-mm-29" value="erp_loc_a101" style="swimlane;fontStyle=0;childLayout=stackLayout;horizontal=1;startSize=30;horizontalStack=0;resizeParent=1;resizeParentMax=0;resizeLast=0;collapsible=1;marginBottom=0;whiteSpace=wrap;html=1;fillColor=#fff2cc;strokeColor=#d6b656;" vertex="1" parent="1">
          <mxGeometry x="257" y="248" width="140" height="60" as="geometry" />
        </mxCell>
        <mxCell id="SEG5We8vUAw7SwNB0-mm-30" value="cid" style="text;strokeColor=none;fillColor=none;align=left;verticalAlign=middle;spacingLeft=4;spacingRight=4;overflow=hidden;points=[[0,0.5],[1,0.5]];portConstraint=eastwest;rotatable=0;whiteSpace=wrap;html=1;" vertex="1" parent="SEG5We8vUAw7SwNB0-mm-29">
          <mxGeometry y="30" width="140" height="30" as="geometry" />
        </mxCell>
        <mxCell id="SEG5We8vUAw7SwNB0-mm-32" value="" style="endArrow=none;html=1;rounded=0;fontSize=12;startSize=8;endSize=8;curved=1;" edge="1" parent="1">
          <mxGeometry width="50" height="50" relative="1" as="geometry">
            <mxPoint x="195" y="293" as="sourcePoint" />
            <mxPoint x="250" y="293" as="targetPoint" />
          </mxGeometry>
        </mxCell>
        <mxCell id="SEG5We8vUAw7SwNB0-mm-33" value="&lt;font style=&quot;font-size: 11px;&quot;&gt;Location of Customers&lt;/font&gt;" style="text;strokeColor=none;fillColor=none;html=1;align=center;verticalAlign=middle;whiteSpace=wrap;rounded=0;fontSize=16;" vertex="1" parent="1">
          <mxGeometry x="264" y="223" width="118" height="30" as="geometry" />
        </mxCell>
        <mxCell id="SEG5We8vUAw7SwNB0-mm-34" value="erp_px_cat_g1v2" style="swimlane;fontStyle=0;childLayout=stackLayout;horizontal=1;startSize=30;horizontalStack=0;resizeParent=1;resizeParentMax=0;resizeLast=0;collapsible=1;marginBottom=0;whiteSpace=wrap;html=1;fillColor=#fff2cc;strokeColor=#d6b656;" vertex="1" parent="1">
          <mxGeometry x="257" y="44" width="140" height="60" as="geometry" />
        </mxCell>
        <mxCell id="SEG5We8vUAw7SwNB0-mm-35" value="id" style="text;strokeColor=none;fillColor=none;align=left;verticalAlign=middle;spacingLeft=4;spacingRight=4;overflow=hidden;points=[[0,0.5],[1,0.5]];portConstraint=eastwest;rotatable=0;whiteSpace=wrap;html=1;" vertex="1" parent="SEG5We8vUAw7SwNB0-mm-34">
          <mxGeometry y="30" width="140" height="30" as="geometry" />
        </mxCell>
        <mxCell id="SEG5We8vUAw7SwNB0-mm-36" value="&lt;font style=&quot;font-size: 11px;&quot;&gt;&amp;nbsp;Product Categories&lt;/font&gt;" style="text;strokeColor=none;fillColor=none;html=1;align=center;verticalAlign=middle;whiteSpace=wrap;rounded=0;fontSize=16;" vertex="1" parent="1">
          <mxGeometry x="262" y="19" width="140" height="30" as="geometry" />
        </mxCell>
        <mxCell id="SEG5We8vUAw7SwNB0-mm-38" value="" style="edgeStyle=elbowEdgeStyle;elbow=horizontal;endArrow=classic;html=1;curved=0;rounded=0;endSize=8;startSize=8;fontSize=12;entryX=1;entryY=0.5;entryDx=0;entryDy=0;exitX=0;exitY=0.5;exitDx=0;exitDy=0;" edge="1" parent="1" source="SEG5We8vUAw7SwNB0-mm-35" target="SEG5We8vUAw7SwNB0-mm-10">
          <mxGeometry width="50" height="50" relative="1" as="geometry">
            <mxPoint x="203" y="68" as="sourcePoint" />
            <mxPoint x="253" y="18" as="targetPoint" />
          </mxGeometry>
        </mxCell>
        <mxCell id="SEG5We8vUAw7SwNB0-mm-40" value="" style="rounded=1;whiteSpace=wrap;html=1;absoluteArcSize=1;arcSize=14;strokeWidth=2;fillColor=none;" vertex="1" parent="1">
          <mxGeometry x="-257" y="22" width="422" height="308" as="geometry" />
        </mxCell>
        <mxCell id="SEG5We8vUAw7SwNB0-mm-41" value="CRM" style="text;strokeColor=#6c8ebf;fillColor=#dae8fc;html=1;align=center;verticalAlign=middle;whiteSpace=wrap;rounded=0;fontSize=16;fontStyle=1" vertex="1" parent="1">
          <mxGeometry x="-79" y="-8" width="60" height="30" as="geometry" />
        </mxCell>
        <mxCell id="SEG5We8vUAw7SwNB0-mm-43" value="" style="rounded=1;whiteSpace=wrap;html=1;absoluteArcSize=1;arcSize=14;strokeWidth=2;fillColor=none;" vertex="1" parent="1">
          <mxGeometry x="178" y="22" width="264" height="308" as="geometry" />
        </mxCell>
        <mxCell id="SEG5We8vUAw7SwNB0-mm-44" value="ERP" style="text;strokeColor=#d6b656;fillColor=#fff2cc;html=1;align=center;verticalAlign=middle;whiteSpace=wrap;rounded=0;fontSize=16;fontStyle=1" vertex="1" parent="1">
          <mxGeometry x="297" y="-8" width="60" height="30" as="geometry" />
        </mxCell>
        <mxCell id="yTeIg42Udtss6wcTEpXc-2" value="Product" style="text;strokeColor=#b85450;fillColor=#f8cecc;html=1;align=center;verticalAlign=middle;whiteSpace=wrap;rounded=0;fontSize=16;fontStyle=1;" vertex="1" parent="1">
          <mxGeometry x="34" y="154" width="69" height="15" as="geometry" />
        </mxCell>
        <mxCell id="yTeIg42Udtss6wcTEpXc-3" value="Product" style="text;strokeColor=#b85450;fillColor=#f8cecc;html=1;align=center;verticalAlign=middle;whiteSpace=wrap;rounded=0;fontSize=16;fontStyle=1;" vertex="1" parent="1">
          <mxGeometry x="297" y="99" width="69" height="15" as="geometry" />
        </mxCell>
        <mxCell id="yTeIg42Udtss6wcTEpXc-6" value="Customer" style="text;strokeColor=#82b366;fillColor=#d5e8d4;html=1;align=center;verticalAlign=middle;whiteSpace=wrap;rounded=0;fontSize=16;fontStyle=1;" vertex="1" parent="1">
          <mxGeometry x="34" y="308" width="76" height="15" as="geometry" />
        </mxCell>
        <mxCell id="yTeIg42Udtss6wcTEpXc-7" value="Customer" style="text;strokeColor=#82b366;fillColor=#d5e8d4;html=1;align=center;verticalAlign=middle;whiteSpace=wrap;rounded=0;fontSize=16;fontStyle=1;" vertex="1" parent="1">
          <mxGeometry x="290" y="205" width="76" height="15" as="geometry" />
        </mxCell>
        <mxCell id="yTeIg42Udtss6wcTEpXc-8" value="Customer" style="text;strokeColor=#82b366;fillColor=#d5e8d4;html=1;align=center;verticalAlign=middle;whiteSpace=wrap;rounded=0;fontSize=16;fontStyle=1;" vertex="1" parent="1">
          <mxGeometry x="293.5" y="303" width="76" height="15" as="geometry" />
        </mxCell>
        <mxCell id="yTeIg42Udtss6wcTEpXc-9" value="Sales" style="text;strokeColor=#9673a6;fillColor=#e1d5e7;html=1;align=center;verticalAlign=middle;whiteSpace=wrap;rounded=0;fontSize=16;fontStyle=1;" vertex="1" parent="1">
          <mxGeometry x="-226" y="226" width="76" height="15" as="geometry" />
        </mxCell>
      </root>
    </mxGraphModel>
  </diagram>
  <diagram id="0dy0p6yWnpQwwBcOpM4W" name="Page-4">
    <mxGraphModel dx="1253" dy="952" grid="0" gridSize="10" guides="1" tooltips="1" connect="1" arrows="1" fold="1" page="0" pageScale="1" pageWidth="827" pageHeight="1169" math="0" shadow="0">
      <root>
        <mxCell id="0" />
        <mxCell id="1" parent="0" />
        <mxCell id="mYz-OPGs3jYPNOR6NYXj-6" value="" style="shape=parallelogram;perimeter=parallelogramPerimeter;whiteSpace=wrap;html=1;fixedSize=1;" vertex="1" parent="1">
          <mxGeometry x="-156" y="144" width="170" height="50" as="geometry" />
        </mxCell>
        <mxCell id="mYz-OPGs3jYPNOR6NYXj-7" value="" style="shape=parallelogram;perimeter=parallelogramPerimeter;whiteSpace=wrap;html=1;fixedSize=1;" vertex="1" parent="1">
          <mxGeometry x="17" y="146" width="170" height="49" as="geometry" />
        </mxCell>
        <mxCell id="mYz-OPGs3jYPNOR6NYXj-43" style="edgeStyle=none;curved=1;rounded=0;orthogonalLoop=1;jettySize=auto;html=1;exitX=0.75;exitY=1;exitDx=0;exitDy=0;fontSize=12;startSize=8;endSize=8;" edge="1" parent="1" source="mYz-OPGs3jYPNOR6NYXj-8">
          <mxGeometry relative="1" as="geometry">
            <mxPoint x="324" y="195" as="targetPoint" />
          </mxGeometry>
        </mxCell>
        <mxCell id="mYz-OPGs3jYPNOR6NYXj-8" value="" style="shape=parallelogram;perimeter=parallelogramPerimeter;whiteSpace=wrap;html=1;fixedSize=1;" vertex="1" parent="1">
          <mxGeometry x="196" y="144" width="183" height="50" as="geometry" />
        </mxCell>
        <mxCell id="mYz-OPGs3jYPNOR6NYXj-9" value="" style="shape=parallelogram;perimeter=parallelogramPerimeter;whiteSpace=wrap;html=1;fixedSize=1;" vertex="1" parent="1">
          <mxGeometry x="380" y="144" width="170" height="50" as="geometry" />
        </mxCell>
        <mxCell id="mYz-OPGs3jYPNOR6NYXj-14" value="" style="shape=parallelogram;perimeter=parallelogramPerimeter;whiteSpace=wrap;html=1;fixedSize=1;" vertex="1" parent="1">
          <mxGeometry x="-156" y="20" width="170" height="49" as="geometry" />
        </mxCell>
        <mxCell id="mYz-OPGs3jYPNOR6NYXj-15" value="" style="shape=parallelogram;perimeter=parallelogramPerimeter;whiteSpace=wrap;html=1;fixedSize=1;" vertex="1" parent="1">
          <mxGeometry x="17" y="22" width="170" height="50" as="geometry" />
        </mxCell>
        <mxCell id="mYz-OPGs3jYPNOR6NYXj-16" value="" style="shape=parallelogram;perimeter=parallelogramPerimeter;whiteSpace=wrap;html=1;fixedSize=1;" vertex="1" parent="1">
          <mxGeometry x="196" y="20" width="170" height="52" as="geometry" />
        </mxCell>
        <mxCell id="mYz-OPGs3jYPNOR6NYXj-17" value="" style="shape=parallelogram;perimeter=parallelogramPerimeter;whiteSpace=wrap;html=1;fixedSize=1;" vertex="1" parent="1">
          <mxGeometry x="380" y="20" width="170" height="52" as="geometry" />
        </mxCell>
        <mxCell id="mYz-OPGs3jYPNOR6NYXj-18" value="" style="shape=parallelogram;perimeter=parallelogramPerimeter;whiteSpace=wrap;html=1;fixedSize=1;" vertex="1" parent="1">
          <mxGeometry x="-156" y="273" width="170" height="48" as="geometry" />
        </mxCell>
        <mxCell id="mYz-OPGs3jYPNOR6NYXj-19" value="" style="shape=parallelogram;perimeter=parallelogramPerimeter;whiteSpace=wrap;html=1;fixedSize=1;" vertex="1" parent="1">
          <mxGeometry x="17" y="275" width="170" height="46" as="geometry" />
        </mxCell>
        <mxCell id="mYz-OPGs3jYPNOR6NYXj-20" value="" style="shape=parallelogram;perimeter=parallelogramPerimeter;whiteSpace=wrap;html=1;fixedSize=1;" vertex="1" parent="1">
          <mxGeometry x="196" y="273" width="170" height="48" as="geometry" />
        </mxCell>
        <mxCell id="mYz-OPGs3jYPNOR6NYXj-21" value="" style="shape=parallelogram;perimeter=parallelogramPerimeter;whiteSpace=wrap;html=1;fixedSize=1;" vertex="1" parent="1">
          <mxGeometry x="380" y="273" width="170" height="48" as="geometry" />
        </mxCell>
        <mxCell id="mYz-OPGs3jYPNOR6NYXj-22" value="Analysing" style="rounded=1;whiteSpace=wrap;html=1;fillColor=#cce5ff;strokeColor=#36393d;" vertex="1" parent="1">
          <mxGeometry x="-124" y="8" width="120" height="25" as="geometry" />
        </mxCell>
        <mxCell id="mYz-OPGs3jYPNOR6NYXj-24" value="Coding" style="rounded=1;whiteSpace=wrap;html=1;fillColor=#cce5ff;strokeColor=#36393d;" vertex="1" parent="1">
          <mxGeometry x="51" y="8" width="120" height="25" as="geometry" />
        </mxCell>
        <mxCell id="mYz-OPGs3jYPNOR6NYXj-25" value="Validating" style="rounded=1;whiteSpace=wrap;html=1;fillColor=#cce5ff;strokeColor=#36393d;" vertex="1" parent="1">
          <mxGeometry x="231" y="8" width="120" height="25" as="geometry" />
        </mxCell>
        <mxCell id="mYz-OPGs3jYPNOR6NYXj-26" value="Docs &amp;amp; Version" style="rounded=1;whiteSpace=wrap;html=1;fillColor=#cce5ff;strokeColor=#36393d;" vertex="1" parent="1">
          <mxGeometry x="416" y="8" width="120" height="25" as="geometry" />
        </mxCell>
        <mxCell id="mYz-OPGs3jYPNOR6NYXj-27" value="Analysing" style="rounded=1;whiteSpace=wrap;html=1;fillColor=#cce5ff;strokeColor=#36393d;" vertex="1" parent="1">
          <mxGeometry x="-124" y="130" width="120" height="25" as="geometry" />
        </mxCell>
        <mxCell id="mYz-OPGs3jYPNOR6NYXj-28" value="Coding" style="rounded=1;whiteSpace=wrap;html=1;fillColor=#cce5ff;strokeColor=#36393d;" vertex="1" parent="1">
          <mxGeometry x="51" y="130" width="120" height="25" as="geometry" />
        </mxCell>
        <mxCell id="mYz-OPGs3jYPNOR6NYXj-29" value="Validating" style="rounded=1;whiteSpace=wrap;html=1;fillColor=#cce5ff;strokeColor=#36393d;" vertex="1" parent="1">
          <mxGeometry x="231" y="130" width="120" height="25" as="geometry" />
        </mxCell>
        <mxCell id="mYz-OPGs3jYPNOR6NYXj-30" value="Docs &amp;amp; Version" style="rounded=1;whiteSpace=wrap;html=1;fillColor=#cce5ff;strokeColor=#36393d;" vertex="1" parent="1">
          <mxGeometry x="414" y="130" width="120" height="25" as="geometry" />
        </mxCell>
        <mxCell id="mYz-OPGs3jYPNOR6NYXj-31" value="Analysing" style="rounded=1;whiteSpace=wrap;html=1;fillColor=#cce5ff;strokeColor=#36393d;" vertex="1" parent="1">
          <mxGeometry x="-124" y="263" width="120" height="25" as="geometry" />
        </mxCell>
        <mxCell id="mYz-OPGs3jYPNOR6NYXj-32" value="&lt;font style=&quot;&quot;&gt;&lt;b style=&quot;&quot;&gt;&lt;font style=&quot;font-size: 13px;&quot;&gt;Explore &amp;amp; Understand&lt;/font&gt;&lt;/b&gt; &lt;font style=&quot;font-size: 11px;&quot;&gt;the Business Objects&lt;/font&gt;&lt;/font&gt;" style="text;strokeColor=none;fillColor=none;html=1;align=center;verticalAlign=middle;whiteSpace=wrap;rounded=0;fontSize=16;" vertex="1" parent="1">
          <mxGeometry x="-147" y="293" width="145" height="22" as="geometry" />
        </mxCell>
        <mxCell id="mYz-OPGs3jYPNOR6NYXj-33" value="Coding" style="rounded=1;whiteSpace=wrap;html=1;fillColor=#cce5ff;strokeColor=#36393d;" vertex="1" parent="1">
          <mxGeometry x="49" y="261" width="120" height="25" as="geometry" />
        </mxCell>
        <mxCell id="mYz-OPGs3jYPNOR6NYXj-34" value="&lt;font style=&quot;font-size: 13px;&quot;&gt;&lt;b style=&quot;&quot;&gt;Data Integration&lt;/b&gt;&lt;/font&gt;" style="text;strokeColor=none;fillColor=none;html=1;align=center;verticalAlign=middle;whiteSpace=wrap;rounded=0;fontSize=16;" vertex="1" parent="1">
          <mxGeometry x="38" y="285" width="138" height="30" as="geometry" />
        </mxCell>
        <mxCell id="mYz-OPGs3jYPNOR6NYXj-35" value="Validating" style="rounded=1;whiteSpace=wrap;html=1;fillColor=#cce5ff;strokeColor=#36393d;" vertex="1" parent="1">
          <mxGeometry x="228" y="258" width="120" height="25" as="geometry" />
        </mxCell>
        <mxCell id="mYz-OPGs3jYPNOR6NYXj-36" value="&lt;font style=&quot;font-size: 13px;&quot;&gt;Data&lt;b style=&quot;&quot;&gt; Integration &lt;/b&gt;Checks&lt;/font&gt;" style="text;strokeColor=none;fillColor=none;html=1;align=center;verticalAlign=middle;whiteSpace=wrap;rounded=0;fontSize=16;" vertex="1" parent="1">
          <mxGeometry x="196" y="288" width="162" height="30" as="geometry" />
        </mxCell>
        <mxCell id="mYz-OPGs3jYPNOR6NYXj-37" value="&lt;span style=&quot;font-size: 13px;&quot;&gt;&lt;b&gt;Interview Source Systems Experts&lt;/b&gt;&lt;/span&gt;" style="text;strokeColor=none;fillColor=none;html=1;align=center;verticalAlign=middle;whiteSpace=wrap;rounded=0;fontSize=16;" vertex="1" parent="1">
          <mxGeometry x="-149" y="37" width="145" height="22" as="geometry" />
        </mxCell>
        <mxCell id="mYz-OPGs3jYPNOR6NYXj-38" value="&lt;font style=&quot;font-size: 13px;&quot;&gt;&lt;b style=&quot;&quot;&gt;Data Ingestion&lt;/b&gt;&lt;/font&gt;" style="text;strokeColor=none;fillColor=none;html=1;align=center;verticalAlign=middle;whiteSpace=wrap;rounded=0;fontSize=16;" vertex="1" parent="1">
          <mxGeometry x="33" y="33" width="138" height="30" as="geometry" />
        </mxCell>
        <mxCell id="mYz-OPGs3jYPNOR6NYXj-39" value="&lt;font style=&quot;font-size: 13px;&quot;&gt;Data&lt;b style=&quot;&quot;&gt; completeness &amp;amp;Schema&amp;nbsp;&lt;/b&gt;Checks&lt;/font&gt;" style="text;strokeColor=none;fillColor=none;html=1;align=center;verticalAlign=middle;whiteSpace=wrap;rounded=0;fontSize=16;" vertex="1" parent="1">
          <mxGeometry x="196" y="34" width="162" height="30" as="geometry" />
        </mxCell>
        <mxCell id="mYz-OPGs3jYPNOR6NYXj-40" value="&lt;font style=&quot;font-size: 13px;&quot;&gt;&lt;b style=&quot;&quot;&gt;Data Cleansing&lt;/b&gt;&lt;/font&gt;" style="text;strokeColor=none;fillColor=none;html=1;align=center;verticalAlign=middle;whiteSpace=wrap;rounded=0;fontSize=16;" vertex="1" parent="1">
          <mxGeometry x="26" y="155" width="138" height="30" as="geometry" />
        </mxCell>
        <mxCell id="mYz-OPGs3jYPNOR6NYXj-41" value="&lt;font style=&quot;&quot;&gt;&lt;b style=&quot;&quot;&gt;&lt;font style=&quot;font-size: 13px;&quot;&gt;Explore &amp;amp; Understand&lt;/font&gt;&lt;/b&gt; &lt;font style=&quot;font-size: 11px;&quot;&gt;the Data&lt;/font&gt;&lt;/font&gt;" style="text;strokeColor=none;fillColor=none;html=1;align=center;verticalAlign=middle;whiteSpace=wrap;rounded=0;fontSize=16;" vertex="1" parent="1">
          <mxGeometry x="-143.5" y="163" width="145" height="22" as="geometry" />
        </mxCell>
        <mxCell id="mYz-OPGs3jYPNOR6NYXj-42" value="&lt;font style=&quot;font-size: 13px;&quot;&gt;Data&lt;b style=&quot;&quot;&gt; Correctness&amp;nbsp;&lt;/b&gt;Checks&lt;/font&gt;" style="text;strokeColor=none;fillColor=none;html=1;align=center;verticalAlign=middle;whiteSpace=wrap;rounded=0;fontSize=16;" vertex="1" parent="1">
          <mxGeometry x="204" y="154" width="162" height="30" as="geometry" />
        </mxCell>
        <mxCell id="mYz-OPGs3jYPNOR6NYXj-44" value="&lt;span style=&quot;font-size: 13px;&quot;&gt;&lt;b&gt;Documenting &amp;amp; Versioning&lt;/b&gt; in GIT&lt;/span&gt;" style="text;strokeColor=none;fillColor=none;html=1;align=center;verticalAlign=middle;whiteSpace=wrap;rounded=0;fontSize=16;" vertex="1" parent="1">
          <mxGeometry x="384" y="39" width="162" height="30" as="geometry" />
        </mxCell>
        <mxCell id="mYz-OPGs3jYPNOR6NYXj-45" value="&lt;span style=&quot;font-size: 13px;&quot;&gt;&lt;b&gt;Documenting &amp;amp; Versioning&lt;/b&gt; in GIT&lt;/span&gt;" style="text;strokeColor=none;fillColor=none;html=1;align=center;verticalAlign=middle;whiteSpace=wrap;rounded=0;fontSize=16;" vertex="1" parent="1">
          <mxGeometry x="384" y="159" width="162" height="30" as="geometry" />
        </mxCell>
        <mxCell id="mYz-OPGs3jYPNOR6NYXj-46" value="BRONZE Layer" style="rounded=1;whiteSpace=wrap;html=1;fillColor=#fad7ac;strokeColor=#b46504;" vertex="1" parent="1">
          <mxGeometry x="151" y="-41" width="120" height="25" as="geometry" />
        </mxCell>
        <mxCell id="mYz-OPGs3jYPNOR6NYXj-47" value="SILVER Layer" style="rounded=1;whiteSpace=wrap;html=1;fillColor=#f5f5f5;strokeColor=#666666;gradientColor=#b3b3b3;" vertex="1" parent="1">
          <mxGeometry x="141" y="92" width="120" height="25" as="geometry" />
        </mxCell>
        <mxCell id="mYz-OPGs3jYPNOR6NYXj-48" value="GOLD Layer" style="rounded=1;whiteSpace=wrap;html=1;fillColor=#ffcd28;strokeColor=#d79b00;gradientColor=#ffa500;" vertex="1" parent="1">
          <mxGeometry x="137" y="224" width="120" height="25" as="geometry" />
        </mxCell>
        <mxCell id="mYz-OPGs3jYPNOR6NYXj-49" value="Build The Business Objects" style="rounded=0;whiteSpace=wrap;html=1;" vertex="1" parent="1">
          <mxGeometry x="-64" y="377" width="95" height="44" as="geometry" />
        </mxCell>
        <mxCell id="mYz-OPGs3jYPNOR6NYXj-50" value="Choose Type&lt;div&gt;Dimension vs Fact&lt;/div&gt;" style="rounded=0;whiteSpace=wrap;html=1;" vertex="1" parent="1">
          <mxGeometry x="51" y="377" width="103" height="44" as="geometry" />
        </mxCell>
        <mxCell id="mYz-OPGs3jYPNOR6NYXj-51" value="Rename to friendly names" style="rounded=0;whiteSpace=wrap;html=1;" vertex="1" parent="1">
          <mxGeometry x="176" y="379" width="95" height="44" as="geometry" />
        </mxCell>
        <mxCell id="mYz-OPGs3jYPNOR6NYXj-52" value="" style="endArrow=none;dashed=1;html=1;rounded=0;fontSize=12;startSize=8;endSize=8;curved=1;" edge="1" parent="1">
          <mxGeometry width="50" height="50" relative="1" as="geometry">
            <mxPoint x="-65" y="378" as="sourcePoint" />
            <mxPoint x="17" y="321" as="targetPoint" />
          </mxGeometry>
        </mxCell>
        <mxCell id="mYz-OPGs3jYPNOR6NYXj-53" value="" style="endArrow=none;dashed=1;html=1;rounded=0;fontSize=12;startSize=8;endSize=8;curved=1;entryX=1;entryY=1;entryDx=0;entryDy=0;" edge="1" parent="1" target="mYz-OPGs3jYPNOR6NYXj-19">
          <mxGeometry width="50" height="50" relative="1" as="geometry">
            <mxPoint x="270" y="378" as="sourcePoint" />
            <mxPoint x="343" y="321" as="targetPoint" />
          </mxGeometry>
        </mxCell>
        <mxCell id="mYz-OPGs3jYPNOR6NYXj-54" value="" style="html=1;verticalLabelPosition=bottom;labelBackgroundColor=#ffffff;verticalAlign=top;shadow=0;dashed=0;strokeWidth=2;shape=mxgraph.ios7.misc.right;strokeColor=#0080f0;" vertex="1" parent="1">
          <mxGeometry x="38" y="393" width="6" height="12" as="geometry" />
        </mxCell>
        <mxCell id="mYz-OPGs3jYPNOR6NYXj-55" value="" style="html=1;verticalLabelPosition=bottom;labelBackgroundColor=#ffffff;verticalAlign=top;shadow=0;dashed=0;strokeWidth=2;shape=mxgraph.ios7.misc.right;strokeColor=#0080f0;" vertex="1" parent="1">
          <mxGeometry x="165" y="393" width="6" height="12" as="geometry" />
        </mxCell>
        <mxCell id="mYz-OPGs3jYPNOR6NYXj-59" style="edgeStyle=none;curved=1;rounded=0;orthogonalLoop=1;jettySize=auto;html=1;entryX=0.5;entryY=1;entryDx=0;entryDy=0;entryPerimeter=0;fontSize=12;startSize=8;endSize=8;" edge="1" parent="1" source="mYz-OPGs3jYPNOR6NYXj-51" target="mYz-OPGs3jYPNOR6NYXj-55">
          <mxGeometry relative="1" as="geometry" />
        </mxCell>
        <mxCell id="mYz-OPGs3jYPNOR6NYXj-60" value="" style="html=1;verticalLabelPosition=bottom;labelBackgroundColor=#ffffff;verticalAlign=top;shadow=0;dashed=0;strokeWidth=2;shape=mxgraph.ios7.misc.right;strokeColor=#0080f0;" vertex="1" parent="1">
          <mxGeometry x="11" y="292" width="6" height="12" as="geometry" />
        </mxCell>
        <mxCell id="mYz-OPGs3jYPNOR6NYXj-61" value="" style="html=1;verticalLabelPosition=bottom;labelBackgroundColor=#ffffff;verticalAlign=top;shadow=0;dashed=0;strokeWidth=2;shape=mxgraph.ios7.misc.right;strokeColor=#0080f0;" vertex="1" parent="1">
          <mxGeometry x="187" y="292" width="6" height="12" as="geometry" />
        </mxCell>
        <mxCell id="mYz-OPGs3jYPNOR6NYXj-62" value="" style="html=1;verticalLabelPosition=bottom;labelBackgroundColor=#ffffff;verticalAlign=top;shadow=0;dashed=0;strokeWidth=2;shape=mxgraph.ios7.misc.right;strokeColor=#0080f0;" vertex="1" parent="1">
          <mxGeometry x="366" y="294" width="6" height="12" as="geometry" />
        </mxCell>
        <mxCell id="mYz-OPGs3jYPNOR6NYXj-63" value="Docs &amp;amp; Version" style="rounded=1;whiteSpace=wrap;html=1;fillColor=#cce5ff;strokeColor=#36393d;" vertex="1" parent="1">
          <mxGeometry x="416" y="258" width="120" height="25" as="geometry" />
        </mxCell>
        <mxCell id="mYz-OPGs3jYPNOR6NYXj-64" value="&lt;span style=&quot;font-size: 13px;&quot;&gt;&lt;b&gt;Documenting &amp;amp; Versioning&lt;/b&gt; in GIT&lt;/span&gt;" style="text;strokeColor=none;fillColor=none;html=1;align=center;verticalAlign=middle;whiteSpace=wrap;rounded=0;fontSize=16;" vertex="1" parent="1">
          <mxGeometry x="384" y="285" width="162" height="30" as="geometry" />
        </mxCell>
        <mxCell id="mYz-OPGs3jYPNOR6NYXj-65" value="" style="endArrow=none;dashed=1;html=1;rounded=0;fontSize=12;startSize=8;endSize=8;curved=1;" edge="1" parent="1">
          <mxGeometry width="50" height="50" relative="1" as="geometry">
            <mxPoint x="408" y="360" as="sourcePoint" />
            <mxPoint x="447" y="321" as="targetPoint" />
          </mxGeometry>
        </mxCell>
        <mxCell id="mYz-OPGs3jYPNOR6NYXj-66" value="Data Model&lt;div&gt;Data Catalog&lt;/div&gt;&lt;div&gt;Data Flow&lt;/div&gt;" style="text;strokeColor=none;fillColor=none;html=1;align=center;verticalAlign=middle;whiteSpace=wrap;rounded=0;fontSize=16;" vertex="1" parent="1">
          <mxGeometry x="372" y="361" width="133" height="57" as="geometry" />
        </mxCell>
      </root>
    </mxGraphModel>
  </diagram>
  <diagram id="LyxP5appqwchJmbdjVM4" name="Page-5">
    <mxGraphModel dx="1018" dy="952" grid="0" gridSize="10" guides="1" tooltips="1" connect="1" arrows="1" fold="1" page="0" pageScale="1" pageWidth="827" pageHeight="1169" math="0" shadow="0">
      <root>
        <mxCell id="0" />
        <mxCell id="1" parent="0" />
        <mxCell id="9z6aoZVp6_rpxyYa4KHD-1" value="Sales Data Mart" style="text;strokeColor=none;fillColor=none;html=1;align=center;verticalAlign=middle;whiteSpace=wrap;rounded=0;fontSize=18;fontStyle=1" vertex="1" parent="1">
          <mxGeometry x="-208" y="-82" width="156" height="30" as="geometry" />
        </mxCell>
        <mxCell id="9z6aoZVp6_rpxyYa4KHD-2" value="(Star Schema)" style="text;strokeColor=none;fillColor=none;html=1;align=center;verticalAlign=middle;whiteSpace=wrap;rounded=0;fontSize=15;" vertex="1" parent="1">
          <mxGeometry x="-39" y="-79" width="111" height="30" as="geometry" />
        </mxCell>
        <mxCell id="9z6aoZVp6_rpxyYa4KHD-13" value="gold.dim_customers" style="shape=table;startSize=30;container=1;collapsible=1;childLayout=tableLayout;fixedRows=1;rowLines=0;fontStyle=1;align=center;resizeLast=1;html=1;fillColor=#fff2cc;strokeColor=#d6b656;" vertex="1" parent="1">
          <mxGeometry x="-190" y="-12" width="180" height="330" as="geometry" />
        </mxCell>
        <mxCell id="9z6aoZVp6_rpxyYa4KHD-14" value="" style="shape=tableRow;horizontal=0;startSize=0;swimlaneHead=0;swimlaneBody=0;fillColor=none;collapsible=0;dropTarget=0;points=[[0,0.5],[1,0.5]];portConstraint=eastwest;top=0;left=0;right=0;bottom=1;" vertex="1" parent="9z6aoZVp6_rpxyYa4KHD-13">
          <mxGeometry y="30" width="180" height="30" as="geometry" />
        </mxCell>
        <mxCell id="9z6aoZVp6_rpxyYa4KHD-15" value="PK" style="shape=partialRectangle;connectable=0;fillColor=none;top=0;left=0;bottom=0;right=0;fontStyle=1;overflow=hidden;whiteSpace=wrap;html=1;" vertex="1" parent="9z6aoZVp6_rpxyYa4KHD-14">
          <mxGeometry width="30" height="30" as="geometry">
            <mxRectangle width="30" height="30" as="alternateBounds" />
          </mxGeometry>
        </mxCell>
        <mxCell id="9z6aoZVp6_rpxyYa4KHD-16" value="Customer_key" style="shape=partialRectangle;connectable=0;fillColor=none;top=0;left=0;bottom=0;right=0;align=left;spacingLeft=6;fontStyle=5;overflow=hidden;whiteSpace=wrap;html=1;" vertex="1" parent="9z6aoZVp6_rpxyYa4KHD-14">
          <mxGeometry x="30" width="150" height="30" as="geometry">
            <mxRectangle width="150" height="30" as="alternateBounds" />
          </mxGeometry>
        </mxCell>
        <mxCell id="9z6aoZVp6_rpxyYa4KHD-17" value="" style="shape=tableRow;horizontal=0;startSize=0;swimlaneHead=0;swimlaneBody=0;fillColor=none;collapsible=0;dropTarget=0;points=[[0,0.5],[1,0.5]];portConstraint=eastwest;top=0;left=0;right=0;bottom=0;" vertex="1" parent="9z6aoZVp6_rpxyYa4KHD-13">
          <mxGeometry y="60" width="180" height="30" as="geometry" />
        </mxCell>
        <mxCell id="9z6aoZVp6_rpxyYa4KHD-18" value="" style="shape=partialRectangle;connectable=0;fillColor=none;top=0;left=0;bottom=0;right=0;editable=1;overflow=hidden;whiteSpace=wrap;html=1;" vertex="1" parent="9z6aoZVp6_rpxyYa4KHD-17">
          <mxGeometry width="30" height="30" as="geometry">
            <mxRectangle width="30" height="30" as="alternateBounds" />
          </mxGeometry>
        </mxCell>
        <mxCell id="9z6aoZVp6_rpxyYa4KHD-19" value="customer_id" style="shape=partialRectangle;connectable=0;fillColor=none;top=0;left=0;bottom=0;right=0;align=left;spacingLeft=6;overflow=hidden;whiteSpace=wrap;html=1;" vertex="1" parent="9z6aoZVp6_rpxyYa4KHD-17">
          <mxGeometry x="30" width="150" height="30" as="geometry">
            <mxRectangle width="150" height="30" as="alternateBounds" />
          </mxGeometry>
        </mxCell>
        <mxCell id="9z6aoZVp6_rpxyYa4KHD-20" value="" style="shape=tableRow;horizontal=0;startSize=0;swimlaneHead=0;swimlaneBody=0;fillColor=none;collapsible=0;dropTarget=0;points=[[0,0.5],[1,0.5]];portConstraint=eastwest;top=0;left=0;right=0;bottom=0;" vertex="1" parent="9z6aoZVp6_rpxyYa4KHD-13">
          <mxGeometry y="90" width="180" height="30" as="geometry" />
        </mxCell>
        <mxCell id="9z6aoZVp6_rpxyYa4KHD-21" value="" style="shape=partialRectangle;connectable=0;fillColor=none;top=0;left=0;bottom=0;right=0;editable=1;overflow=hidden;whiteSpace=wrap;html=1;" vertex="1" parent="9z6aoZVp6_rpxyYa4KHD-20">
          <mxGeometry width="30" height="30" as="geometry">
            <mxRectangle width="30" height="30" as="alternateBounds" />
          </mxGeometry>
        </mxCell>
        <mxCell id="9z6aoZVp6_rpxyYa4KHD-22" value="customer_number" style="shape=partialRectangle;connectable=0;fillColor=none;top=0;left=0;bottom=0;right=0;align=left;spacingLeft=6;overflow=hidden;whiteSpace=wrap;html=1;" vertex="1" parent="9z6aoZVp6_rpxyYa4KHD-20">
          <mxGeometry x="30" width="150" height="30" as="geometry">
            <mxRectangle width="150" height="30" as="alternateBounds" />
          </mxGeometry>
        </mxCell>
        <mxCell id="9z6aoZVp6_rpxyYa4KHD-23" value="" style="shape=tableRow;horizontal=0;startSize=0;swimlaneHead=0;swimlaneBody=0;fillColor=none;collapsible=0;dropTarget=0;points=[[0,0.5],[1,0.5]];portConstraint=eastwest;top=0;left=0;right=0;bottom=0;" vertex="1" parent="9z6aoZVp6_rpxyYa4KHD-13">
          <mxGeometry y="120" width="180" height="30" as="geometry" />
        </mxCell>
        <mxCell id="9z6aoZVp6_rpxyYa4KHD-24" value="" style="shape=partialRectangle;connectable=0;fillColor=none;top=0;left=0;bottom=0;right=0;editable=1;overflow=hidden;whiteSpace=wrap;html=1;" vertex="1" parent="9z6aoZVp6_rpxyYa4KHD-23">
          <mxGeometry width="30" height="30" as="geometry">
            <mxRectangle width="30" height="30" as="alternateBounds" />
          </mxGeometry>
        </mxCell>
        <mxCell id="9z6aoZVp6_rpxyYa4KHD-25" value="first_name" style="shape=partialRectangle;connectable=0;fillColor=none;top=0;left=0;bottom=0;right=0;align=left;spacingLeft=6;overflow=hidden;whiteSpace=wrap;html=1;" vertex="1" parent="9z6aoZVp6_rpxyYa4KHD-23">
          <mxGeometry x="30" width="150" height="30" as="geometry">
            <mxRectangle width="150" height="30" as="alternateBounds" />
          </mxGeometry>
        </mxCell>
        <mxCell id="9z6aoZVp6_rpxyYa4KHD-26" value="" style="shape=tableRow;horizontal=0;startSize=0;swimlaneHead=0;swimlaneBody=0;fillColor=none;collapsible=0;dropTarget=0;points=[[0,0.5],[1,0.5]];portConstraint=eastwest;top=0;left=0;right=0;bottom=0;" vertex="1" parent="9z6aoZVp6_rpxyYa4KHD-13">
          <mxGeometry y="150" width="180" height="30" as="geometry" />
        </mxCell>
        <mxCell id="9z6aoZVp6_rpxyYa4KHD-27" value="" style="shape=partialRectangle;connectable=0;fillColor=none;top=0;left=0;bottom=0;right=0;editable=1;overflow=hidden;whiteSpace=wrap;html=1;" vertex="1" parent="9z6aoZVp6_rpxyYa4KHD-26">
          <mxGeometry width="30" height="30" as="geometry">
            <mxRectangle width="30" height="30" as="alternateBounds" />
          </mxGeometry>
        </mxCell>
        <mxCell id="9z6aoZVp6_rpxyYa4KHD-28" value="last_name" style="shape=partialRectangle;connectable=0;fillColor=none;top=0;left=0;bottom=0;right=0;align=left;spacingLeft=6;overflow=hidden;whiteSpace=wrap;html=1;" vertex="1" parent="9z6aoZVp6_rpxyYa4KHD-26">
          <mxGeometry x="30" width="150" height="30" as="geometry">
            <mxRectangle width="150" height="30" as="alternateBounds" />
          </mxGeometry>
        </mxCell>
        <mxCell id="9z6aoZVp6_rpxyYa4KHD-29" value="" style="shape=tableRow;horizontal=0;startSize=0;swimlaneHead=0;swimlaneBody=0;fillColor=none;collapsible=0;dropTarget=0;points=[[0,0.5],[1,0.5]];portConstraint=eastwest;top=0;left=0;right=0;bottom=0;" vertex="1" parent="9z6aoZVp6_rpxyYa4KHD-13">
          <mxGeometry y="180" width="180" height="30" as="geometry" />
        </mxCell>
        <mxCell id="9z6aoZVp6_rpxyYa4KHD-30" value="" style="shape=partialRectangle;connectable=0;fillColor=none;top=0;left=0;bottom=0;right=0;editable=1;overflow=hidden;whiteSpace=wrap;html=1;" vertex="1" parent="9z6aoZVp6_rpxyYa4KHD-29">
          <mxGeometry width="30" height="30" as="geometry">
            <mxRectangle width="30" height="30" as="alternateBounds" />
          </mxGeometry>
        </mxCell>
        <mxCell id="9z6aoZVp6_rpxyYa4KHD-31" value="country" style="shape=partialRectangle;connectable=0;fillColor=none;top=0;left=0;bottom=0;right=0;align=left;spacingLeft=6;overflow=hidden;whiteSpace=wrap;html=1;" vertex="1" parent="9z6aoZVp6_rpxyYa4KHD-29">
          <mxGeometry x="30" width="150" height="30" as="geometry">
            <mxRectangle width="150" height="30" as="alternateBounds" />
          </mxGeometry>
        </mxCell>
        <mxCell id="9z6aoZVp6_rpxyYa4KHD-32" value="" style="shape=tableRow;horizontal=0;startSize=0;swimlaneHead=0;swimlaneBody=0;fillColor=none;collapsible=0;dropTarget=0;points=[[0,0.5],[1,0.5]];portConstraint=eastwest;top=0;left=0;right=0;bottom=0;" vertex="1" parent="9z6aoZVp6_rpxyYa4KHD-13">
          <mxGeometry y="210" width="180" height="30" as="geometry" />
        </mxCell>
        <mxCell id="9z6aoZVp6_rpxyYa4KHD-33" value="" style="shape=partialRectangle;connectable=0;fillColor=none;top=0;left=0;bottom=0;right=0;editable=1;overflow=hidden;whiteSpace=wrap;html=1;" vertex="1" parent="9z6aoZVp6_rpxyYa4KHD-32">
          <mxGeometry width="30" height="30" as="geometry">
            <mxRectangle width="30" height="30" as="alternateBounds" />
          </mxGeometry>
        </mxCell>
        <mxCell id="9z6aoZVp6_rpxyYa4KHD-34" value="marital_status" style="shape=partialRectangle;connectable=0;fillColor=none;top=0;left=0;bottom=0;right=0;align=left;spacingLeft=6;overflow=hidden;whiteSpace=wrap;html=1;" vertex="1" parent="9z6aoZVp6_rpxyYa4KHD-32">
          <mxGeometry x="30" width="150" height="30" as="geometry">
            <mxRectangle width="150" height="30" as="alternateBounds" />
          </mxGeometry>
        </mxCell>
        <mxCell id="9z6aoZVp6_rpxyYa4KHD-35" value="" style="shape=tableRow;horizontal=0;startSize=0;swimlaneHead=0;swimlaneBody=0;fillColor=none;collapsible=0;dropTarget=0;points=[[0,0.5],[1,0.5]];portConstraint=eastwest;top=0;left=0;right=0;bottom=0;" vertex="1" parent="9z6aoZVp6_rpxyYa4KHD-13">
          <mxGeometry y="240" width="180" height="30" as="geometry" />
        </mxCell>
        <mxCell id="9z6aoZVp6_rpxyYa4KHD-36" value="" style="shape=partialRectangle;connectable=0;fillColor=none;top=0;left=0;bottom=0;right=0;editable=1;overflow=hidden;whiteSpace=wrap;html=1;" vertex="1" parent="9z6aoZVp6_rpxyYa4KHD-35">
          <mxGeometry width="30" height="30" as="geometry">
            <mxRectangle width="30" height="30" as="alternateBounds" />
          </mxGeometry>
        </mxCell>
        <mxCell id="9z6aoZVp6_rpxyYa4KHD-37" value="gender" style="shape=partialRectangle;connectable=0;fillColor=none;top=0;left=0;bottom=0;right=0;align=left;spacingLeft=6;overflow=hidden;whiteSpace=wrap;html=1;" vertex="1" parent="9z6aoZVp6_rpxyYa4KHD-35">
          <mxGeometry x="30" width="150" height="30" as="geometry">
            <mxRectangle width="150" height="30" as="alternateBounds" />
          </mxGeometry>
        </mxCell>
        <mxCell id="9z6aoZVp6_rpxyYa4KHD-38" value="" style="shape=tableRow;horizontal=0;startSize=0;swimlaneHead=0;swimlaneBody=0;fillColor=none;collapsible=0;dropTarget=0;points=[[0,0.5],[1,0.5]];portConstraint=eastwest;top=0;left=0;right=0;bottom=0;" vertex="1" parent="9z6aoZVp6_rpxyYa4KHD-13">
          <mxGeometry y="270" width="180" height="30" as="geometry" />
        </mxCell>
        <mxCell id="9z6aoZVp6_rpxyYa4KHD-39" value="" style="shape=partialRectangle;connectable=0;fillColor=none;top=0;left=0;bottom=0;right=0;editable=1;overflow=hidden;whiteSpace=wrap;html=1;" vertex="1" parent="9z6aoZVp6_rpxyYa4KHD-38">
          <mxGeometry width="30" height="30" as="geometry">
            <mxRectangle width="30" height="30" as="alternateBounds" />
          </mxGeometry>
        </mxCell>
        <mxCell id="9z6aoZVp6_rpxyYa4KHD-40" value="birthdate" style="shape=partialRectangle;connectable=0;fillColor=none;top=0;left=0;bottom=0;right=0;align=left;spacingLeft=6;overflow=hidden;whiteSpace=wrap;html=1;" vertex="1" parent="9z6aoZVp6_rpxyYa4KHD-38">
          <mxGeometry x="30" width="150" height="30" as="geometry">
            <mxRectangle width="150" height="30" as="alternateBounds" />
          </mxGeometry>
        </mxCell>
        <mxCell id="9z6aoZVp6_rpxyYa4KHD-41" value="" style="shape=tableRow;horizontal=0;startSize=0;swimlaneHead=0;swimlaneBody=0;fillColor=none;collapsible=0;dropTarget=0;points=[[0,0.5],[1,0.5]];portConstraint=eastwest;top=0;left=0;right=0;bottom=0;" vertex="1" parent="9z6aoZVp6_rpxyYa4KHD-13">
          <mxGeometry y="300" width="180" height="30" as="geometry" />
        </mxCell>
        <mxCell id="9z6aoZVp6_rpxyYa4KHD-42" value="" style="shape=partialRectangle;connectable=0;fillColor=none;top=0;left=0;bottom=0;right=0;editable=1;overflow=hidden;whiteSpace=wrap;html=1;" vertex="1" parent="9z6aoZVp6_rpxyYa4KHD-41">
          <mxGeometry width="30" height="30" as="geometry">
            <mxRectangle width="30" height="30" as="alternateBounds" />
          </mxGeometry>
        </mxCell>
        <mxCell id="9z6aoZVp6_rpxyYa4KHD-43" value="country" style="shape=partialRectangle;connectable=0;fillColor=none;top=0;left=0;bottom=0;right=0;align=left;spacingLeft=6;overflow=hidden;whiteSpace=wrap;html=1;" vertex="1" parent="9z6aoZVp6_rpxyYa4KHD-41">
          <mxGeometry x="30" width="150" height="30" as="geometry">
            <mxRectangle width="150" height="30" as="alternateBounds" />
          </mxGeometry>
        </mxCell>
        <mxCell id="9z6aoZVp6_rpxyYa4KHD-44" value="gold.dim_products" style="shape=table;startSize=30;container=1;collapsible=1;childLayout=tableLayout;fixedRows=1;rowLines=0;fontStyle=1;align=center;resizeLast=1;html=1;fillColor=#fff2cc;strokeColor=#d6b656;" vertex="1" parent="1">
          <mxGeometry x="469" y="-12" width="180" height="360" as="geometry" />
        </mxCell>
        <mxCell id="9z6aoZVp6_rpxyYa4KHD-45" value="" style="shape=tableRow;horizontal=0;startSize=0;swimlaneHead=0;swimlaneBody=0;fillColor=none;collapsible=0;dropTarget=0;points=[[0,0.5],[1,0.5]];portConstraint=eastwest;top=0;left=0;right=0;bottom=1;" vertex="1" parent="9z6aoZVp6_rpxyYa4KHD-44">
          <mxGeometry y="30" width="180" height="30" as="geometry" />
        </mxCell>
        <mxCell id="9z6aoZVp6_rpxyYa4KHD-46" value="PK" style="shape=partialRectangle;connectable=0;fillColor=none;top=0;left=0;bottom=0;right=0;fontStyle=1;overflow=hidden;whiteSpace=wrap;html=1;" vertex="1" parent="9z6aoZVp6_rpxyYa4KHD-45">
          <mxGeometry width="30" height="30" as="geometry">
            <mxRectangle width="30" height="30" as="alternateBounds" />
          </mxGeometry>
        </mxCell>
        <mxCell id="9z6aoZVp6_rpxyYa4KHD-47" value="Product_key" style="shape=partialRectangle;connectable=0;fillColor=none;top=0;left=0;bottom=0;right=0;align=left;spacingLeft=6;fontStyle=5;overflow=hidden;whiteSpace=wrap;html=1;" vertex="1" parent="9z6aoZVp6_rpxyYa4KHD-45">
          <mxGeometry x="30" width="150" height="30" as="geometry">
            <mxRectangle width="150" height="30" as="alternateBounds" />
          </mxGeometry>
        </mxCell>
        <mxCell id="9z6aoZVp6_rpxyYa4KHD-48" value="" style="shape=tableRow;horizontal=0;startSize=0;swimlaneHead=0;swimlaneBody=0;fillColor=none;collapsible=0;dropTarget=0;points=[[0,0.5],[1,0.5]];portConstraint=eastwest;top=0;left=0;right=0;bottom=0;" vertex="1" parent="9z6aoZVp6_rpxyYa4KHD-44">
          <mxGeometry y="60" width="180" height="30" as="geometry" />
        </mxCell>
        <mxCell id="9z6aoZVp6_rpxyYa4KHD-49" value="" style="shape=partialRectangle;connectable=0;fillColor=none;top=0;left=0;bottom=0;right=0;editable=1;overflow=hidden;whiteSpace=wrap;html=1;" vertex="1" parent="9z6aoZVp6_rpxyYa4KHD-48">
          <mxGeometry width="30" height="30" as="geometry">
            <mxRectangle width="30" height="30" as="alternateBounds" />
          </mxGeometry>
        </mxCell>
        <mxCell id="9z6aoZVp6_rpxyYa4KHD-50" value="product_id" style="shape=partialRectangle;connectable=0;fillColor=none;top=0;left=0;bottom=0;right=0;align=left;spacingLeft=6;overflow=hidden;whiteSpace=wrap;html=1;" vertex="1" parent="9z6aoZVp6_rpxyYa4KHD-48">
          <mxGeometry x="30" width="150" height="30" as="geometry">
            <mxRectangle width="150" height="30" as="alternateBounds" />
          </mxGeometry>
        </mxCell>
        <mxCell id="9z6aoZVp6_rpxyYa4KHD-51" value="" style="shape=tableRow;horizontal=0;startSize=0;swimlaneHead=0;swimlaneBody=0;fillColor=none;collapsible=0;dropTarget=0;points=[[0,0.5],[1,0.5]];portConstraint=eastwest;top=0;left=0;right=0;bottom=0;" vertex="1" parent="9z6aoZVp6_rpxyYa4KHD-44">
          <mxGeometry y="90" width="180" height="30" as="geometry" />
        </mxCell>
        <mxCell id="9z6aoZVp6_rpxyYa4KHD-52" value="" style="shape=partialRectangle;connectable=0;fillColor=none;top=0;left=0;bottom=0;right=0;editable=1;overflow=hidden;whiteSpace=wrap;html=1;" vertex="1" parent="9z6aoZVp6_rpxyYa4KHD-51">
          <mxGeometry width="30" height="30" as="geometry">
            <mxRectangle width="30" height="30" as="alternateBounds" />
          </mxGeometry>
        </mxCell>
        <mxCell id="9z6aoZVp6_rpxyYa4KHD-53" value="product_number" style="shape=partialRectangle;connectable=0;fillColor=none;top=0;left=0;bottom=0;right=0;align=left;spacingLeft=6;overflow=hidden;whiteSpace=wrap;html=1;" vertex="1" parent="9z6aoZVp6_rpxyYa4KHD-51">
          <mxGeometry x="30" width="150" height="30" as="geometry">
            <mxRectangle width="150" height="30" as="alternateBounds" />
          </mxGeometry>
        </mxCell>
        <mxCell id="9z6aoZVp6_rpxyYa4KHD-54" value="" style="shape=tableRow;horizontal=0;startSize=0;swimlaneHead=0;swimlaneBody=0;fillColor=none;collapsible=0;dropTarget=0;points=[[0,0.5],[1,0.5]];portConstraint=eastwest;top=0;left=0;right=0;bottom=0;" vertex="1" parent="9z6aoZVp6_rpxyYa4KHD-44">
          <mxGeometry y="120" width="180" height="30" as="geometry" />
        </mxCell>
        <mxCell id="9z6aoZVp6_rpxyYa4KHD-55" value="" style="shape=partialRectangle;connectable=0;fillColor=none;top=0;left=0;bottom=0;right=0;editable=1;overflow=hidden;whiteSpace=wrap;html=1;" vertex="1" parent="9z6aoZVp6_rpxyYa4KHD-54">
          <mxGeometry width="30" height="30" as="geometry">
            <mxRectangle width="30" height="30" as="alternateBounds" />
          </mxGeometry>
        </mxCell>
        <mxCell id="9z6aoZVp6_rpxyYa4KHD-56" value="product_name" style="shape=partialRectangle;connectable=0;fillColor=none;top=0;left=0;bottom=0;right=0;align=left;spacingLeft=6;overflow=hidden;whiteSpace=wrap;html=1;" vertex="1" parent="9z6aoZVp6_rpxyYa4KHD-54">
          <mxGeometry x="30" width="150" height="30" as="geometry">
            <mxRectangle width="150" height="30" as="alternateBounds" />
          </mxGeometry>
        </mxCell>
        <mxCell id="9z6aoZVp6_rpxyYa4KHD-57" value="" style="shape=tableRow;horizontal=0;startSize=0;swimlaneHead=0;swimlaneBody=0;fillColor=none;collapsible=0;dropTarget=0;points=[[0,0.5],[1,0.5]];portConstraint=eastwest;top=0;left=0;right=0;bottom=0;" vertex="1" parent="9z6aoZVp6_rpxyYa4KHD-44">
          <mxGeometry y="150" width="180" height="30" as="geometry" />
        </mxCell>
        <mxCell id="9z6aoZVp6_rpxyYa4KHD-58" value="" style="shape=partialRectangle;connectable=0;fillColor=none;top=0;left=0;bottom=0;right=0;editable=1;overflow=hidden;whiteSpace=wrap;html=1;" vertex="1" parent="9z6aoZVp6_rpxyYa4KHD-57">
          <mxGeometry width="30" height="30" as="geometry">
            <mxRectangle width="30" height="30" as="alternateBounds" />
          </mxGeometry>
        </mxCell>
        <mxCell id="9z6aoZVp6_rpxyYa4KHD-59" value="category_id" style="shape=partialRectangle;connectable=0;fillColor=none;top=0;left=0;bottom=0;right=0;align=left;spacingLeft=6;overflow=hidden;whiteSpace=wrap;html=1;" vertex="1" parent="9z6aoZVp6_rpxyYa4KHD-57">
          <mxGeometry x="30" width="150" height="30" as="geometry">
            <mxRectangle width="150" height="30" as="alternateBounds" />
          </mxGeometry>
        </mxCell>
        <mxCell id="9z6aoZVp6_rpxyYa4KHD-60" value="" style="shape=tableRow;horizontal=0;startSize=0;swimlaneHead=0;swimlaneBody=0;fillColor=none;collapsible=0;dropTarget=0;points=[[0,0.5],[1,0.5]];portConstraint=eastwest;top=0;left=0;right=0;bottom=0;" vertex="1" parent="9z6aoZVp6_rpxyYa4KHD-44">
          <mxGeometry y="180" width="180" height="30" as="geometry" />
        </mxCell>
        <mxCell id="9z6aoZVp6_rpxyYa4KHD-61" value="" style="shape=partialRectangle;connectable=0;fillColor=none;top=0;left=0;bottom=0;right=0;editable=1;overflow=hidden;whiteSpace=wrap;html=1;" vertex="1" parent="9z6aoZVp6_rpxyYa4KHD-60">
          <mxGeometry width="30" height="30" as="geometry">
            <mxRectangle width="30" height="30" as="alternateBounds" />
          </mxGeometry>
        </mxCell>
        <mxCell id="9z6aoZVp6_rpxyYa4KHD-62" value="category" style="shape=partialRectangle;connectable=0;fillColor=none;top=0;left=0;bottom=0;right=0;align=left;spacingLeft=6;overflow=hidden;whiteSpace=wrap;html=1;" vertex="1" parent="9z6aoZVp6_rpxyYa4KHD-60">
          <mxGeometry x="30" width="150" height="30" as="geometry">
            <mxRectangle width="150" height="30" as="alternateBounds" />
          </mxGeometry>
        </mxCell>
        <mxCell id="9z6aoZVp6_rpxyYa4KHD-63" value="" style="shape=tableRow;horizontal=0;startSize=0;swimlaneHead=0;swimlaneBody=0;fillColor=none;collapsible=0;dropTarget=0;points=[[0,0.5],[1,0.5]];portConstraint=eastwest;top=0;left=0;right=0;bottom=0;" vertex="1" parent="9z6aoZVp6_rpxyYa4KHD-44">
          <mxGeometry y="210" width="180" height="30" as="geometry" />
        </mxCell>
        <mxCell id="9z6aoZVp6_rpxyYa4KHD-64" value="" style="shape=partialRectangle;connectable=0;fillColor=none;top=0;left=0;bottom=0;right=0;editable=1;overflow=hidden;whiteSpace=wrap;html=1;" vertex="1" parent="9z6aoZVp6_rpxyYa4KHD-63">
          <mxGeometry width="30" height="30" as="geometry">
            <mxRectangle width="30" height="30" as="alternateBounds" />
          </mxGeometry>
        </mxCell>
        <mxCell id="9z6aoZVp6_rpxyYa4KHD-65" value="subcategory" style="shape=partialRectangle;connectable=0;fillColor=none;top=0;left=0;bottom=0;right=0;align=left;spacingLeft=6;overflow=hidden;whiteSpace=wrap;html=1;" vertex="1" parent="9z6aoZVp6_rpxyYa4KHD-63">
          <mxGeometry x="30" width="150" height="30" as="geometry">
            <mxRectangle width="150" height="30" as="alternateBounds" />
          </mxGeometry>
        </mxCell>
        <mxCell id="9z6aoZVp6_rpxyYa4KHD-66" value="" style="shape=tableRow;horizontal=0;startSize=0;swimlaneHead=0;swimlaneBody=0;fillColor=none;collapsible=0;dropTarget=0;points=[[0,0.5],[1,0.5]];portConstraint=eastwest;top=0;left=0;right=0;bottom=0;" vertex="1" parent="9z6aoZVp6_rpxyYa4KHD-44">
          <mxGeometry y="240" width="180" height="30" as="geometry" />
        </mxCell>
        <mxCell id="9z6aoZVp6_rpxyYa4KHD-67" value="" style="shape=partialRectangle;connectable=0;fillColor=none;top=0;left=0;bottom=0;right=0;editable=1;overflow=hidden;whiteSpace=wrap;html=1;" vertex="1" parent="9z6aoZVp6_rpxyYa4KHD-66">
          <mxGeometry width="30" height="30" as="geometry">
            <mxRectangle width="30" height="30" as="alternateBounds" />
          </mxGeometry>
        </mxCell>
        <mxCell id="9z6aoZVp6_rpxyYa4KHD-68" value="maintenance" style="shape=partialRectangle;connectable=0;fillColor=none;top=0;left=0;bottom=0;right=0;align=left;spacingLeft=6;overflow=hidden;whiteSpace=wrap;html=1;" vertex="1" parent="9z6aoZVp6_rpxyYa4KHD-66">
          <mxGeometry x="30" width="150" height="30" as="geometry">
            <mxRectangle width="150" height="30" as="alternateBounds" />
          </mxGeometry>
        </mxCell>
        <mxCell id="9z6aoZVp6_rpxyYa4KHD-69" value="" style="shape=tableRow;horizontal=0;startSize=0;swimlaneHead=0;swimlaneBody=0;fillColor=none;collapsible=0;dropTarget=0;points=[[0,0.5],[1,0.5]];portConstraint=eastwest;top=0;left=0;right=0;bottom=0;" vertex="1" parent="9z6aoZVp6_rpxyYa4KHD-44">
          <mxGeometry y="270" width="180" height="30" as="geometry" />
        </mxCell>
        <mxCell id="9z6aoZVp6_rpxyYa4KHD-70" value="" style="shape=partialRectangle;connectable=0;fillColor=none;top=0;left=0;bottom=0;right=0;editable=1;overflow=hidden;whiteSpace=wrap;html=1;" vertex="1" parent="9z6aoZVp6_rpxyYa4KHD-69">
          <mxGeometry width="30" height="30" as="geometry">
            <mxRectangle width="30" height="30" as="alternateBounds" />
          </mxGeometry>
        </mxCell>
        <mxCell id="9z6aoZVp6_rpxyYa4KHD-71" value="cost" style="shape=partialRectangle;connectable=0;fillColor=none;top=0;left=0;bottom=0;right=0;align=left;spacingLeft=6;overflow=hidden;whiteSpace=wrap;html=1;" vertex="1" parent="9z6aoZVp6_rpxyYa4KHD-69">
          <mxGeometry x="30" width="150" height="30" as="geometry">
            <mxRectangle width="150" height="30" as="alternateBounds" />
          </mxGeometry>
        </mxCell>
        <mxCell id="9z6aoZVp6_rpxyYa4KHD-72" value="" style="shape=tableRow;horizontal=0;startSize=0;swimlaneHead=0;swimlaneBody=0;fillColor=none;collapsible=0;dropTarget=0;points=[[0,0.5],[1,0.5]];portConstraint=eastwest;top=0;left=0;right=0;bottom=0;" vertex="1" parent="9z6aoZVp6_rpxyYa4KHD-44">
          <mxGeometry y="300" width="180" height="30" as="geometry" />
        </mxCell>
        <mxCell id="9z6aoZVp6_rpxyYa4KHD-73" value="" style="shape=partialRectangle;connectable=0;fillColor=none;top=0;left=0;bottom=0;right=0;editable=1;overflow=hidden;whiteSpace=wrap;html=1;" vertex="1" parent="9z6aoZVp6_rpxyYa4KHD-72">
          <mxGeometry width="30" height="30" as="geometry">
            <mxRectangle width="30" height="30" as="alternateBounds" />
          </mxGeometry>
        </mxCell>
        <mxCell id="9z6aoZVp6_rpxyYa4KHD-74" value="product_line" style="shape=partialRectangle;connectable=0;fillColor=none;top=0;left=0;bottom=0;right=0;align=left;spacingLeft=6;overflow=hidden;whiteSpace=wrap;html=1;" vertex="1" parent="9z6aoZVp6_rpxyYa4KHD-72">
          <mxGeometry x="30" width="150" height="30" as="geometry">
            <mxRectangle width="150" height="30" as="alternateBounds" />
          </mxGeometry>
        </mxCell>
        <mxCell id="9z6aoZVp6_rpxyYa4KHD-75" value="" style="shape=tableRow;horizontal=0;startSize=0;swimlaneHead=0;swimlaneBody=0;fillColor=none;collapsible=0;dropTarget=0;points=[[0,0.5],[1,0.5]];portConstraint=eastwest;top=0;left=0;right=0;bottom=0;" vertex="1" parent="9z6aoZVp6_rpxyYa4KHD-44">
          <mxGeometry y="330" width="180" height="30" as="geometry" />
        </mxCell>
        <mxCell id="9z6aoZVp6_rpxyYa4KHD-76" value="" style="shape=partialRectangle;connectable=0;fillColor=none;top=0;left=0;bottom=0;right=0;editable=1;overflow=hidden;whiteSpace=wrap;html=1;" vertex="1" parent="9z6aoZVp6_rpxyYa4KHD-75">
          <mxGeometry width="30" height="30" as="geometry">
            <mxRectangle width="30" height="30" as="alternateBounds" />
          </mxGeometry>
        </mxCell>
        <mxCell id="9z6aoZVp6_rpxyYa4KHD-77" value="start_date" style="shape=partialRectangle;connectable=0;fillColor=none;top=0;left=0;bottom=0;right=0;align=left;spacingLeft=6;overflow=hidden;whiteSpace=wrap;html=1;" vertex="1" parent="9z6aoZVp6_rpxyYa4KHD-75">
          <mxGeometry x="30" width="150" height="30" as="geometry">
            <mxRectangle width="150" height="30" as="alternateBounds" />
          </mxGeometry>
        </mxCell>
        <mxCell id="9z6aoZVp6_rpxyYa4KHD-78" value="gold.fact_sales" style="shape=table;startSize=30;container=1;collapsible=1;childLayout=tableLayout;fixedRows=1;rowLines=0;fontStyle=1;align=center;resizeLast=1;html=1;fillColor=#dae8fc;strokeColor=#6c8ebf;" vertex="1" parent="1">
          <mxGeometry x="131" y="-12" width="180" height="300" as="geometry" />
        </mxCell>
        <mxCell id="9z6aoZVp6_rpxyYa4KHD-85" value="" style="shape=tableRow;horizontal=0;startSize=0;swimlaneHead=0;swimlaneBody=0;fillColor=none;collapsible=0;dropTarget=0;points=[[0,0.5],[1,0.5]];portConstraint=eastwest;top=0;left=0;right=0;bottom=0;" vertex="1" parent="9z6aoZVp6_rpxyYa4KHD-78">
          <mxGeometry y="30" width="180" height="30" as="geometry" />
        </mxCell>
        <mxCell id="9z6aoZVp6_rpxyYa4KHD-86" value="" style="shape=partialRectangle;connectable=0;fillColor=none;top=0;left=0;bottom=0;right=0;editable=1;overflow=hidden;whiteSpace=wrap;html=1;" vertex="1" parent="9z6aoZVp6_rpxyYa4KHD-85">
          <mxGeometry width="30" height="30" as="geometry">
            <mxRectangle width="30" height="30" as="alternateBounds" />
          </mxGeometry>
        </mxCell>
        <mxCell id="9z6aoZVp6_rpxyYa4KHD-87" value="order_number" style="shape=partialRectangle;connectable=0;fillColor=none;top=0;left=0;bottom=0;right=0;align=left;spacingLeft=6;overflow=hidden;whiteSpace=wrap;html=1;" vertex="1" parent="9z6aoZVp6_rpxyYa4KHD-85">
          <mxGeometry x="30" width="150" height="30" as="geometry">
            <mxRectangle width="150" height="30" as="alternateBounds" />
          </mxGeometry>
        </mxCell>
        <mxCell id="9z6aoZVp6_rpxyYa4KHD-88" value="" style="shape=tableRow;horizontal=0;startSize=0;swimlaneHead=0;swimlaneBody=0;fillColor=none;collapsible=0;dropTarget=0;points=[[0,0.5],[1,0.5]];portConstraint=eastwest;top=0;left=0;right=0;bottom=0;" vertex="1" parent="9z6aoZVp6_rpxyYa4KHD-78">
          <mxGeometry y="60" width="180" height="30" as="geometry" />
        </mxCell>
        <mxCell id="9z6aoZVp6_rpxyYa4KHD-89" value="FK1" style="shape=partialRectangle;connectable=0;fillColor=none;top=0;left=0;bottom=0;right=0;editable=1;overflow=hidden;whiteSpace=wrap;html=1;" vertex="1" parent="9z6aoZVp6_rpxyYa4KHD-88">
          <mxGeometry width="30" height="30" as="geometry">
            <mxRectangle width="30" height="30" as="alternateBounds" />
          </mxGeometry>
        </mxCell>
        <mxCell id="9z6aoZVp6_rpxyYa4KHD-90" value="product_key" style="shape=partialRectangle;connectable=0;fillColor=none;top=0;left=0;bottom=0;right=0;align=left;spacingLeft=6;overflow=hidden;whiteSpace=wrap;html=1;" vertex="1" parent="9z6aoZVp6_rpxyYa4KHD-88">
          <mxGeometry x="30" width="150" height="30" as="geometry">
            <mxRectangle width="150" height="30" as="alternateBounds" />
          </mxGeometry>
        </mxCell>
        <mxCell id="9z6aoZVp6_rpxyYa4KHD-91" value="" style="shape=tableRow;horizontal=0;startSize=0;swimlaneHead=0;swimlaneBody=0;fillColor=none;collapsible=0;dropTarget=0;points=[[0,0.5],[1,0.5]];portConstraint=eastwest;top=0;left=0;right=0;bottom=0;" vertex="1" parent="9z6aoZVp6_rpxyYa4KHD-78">
          <mxGeometry y="90" width="180" height="30" as="geometry" />
        </mxCell>
        <mxCell id="9z6aoZVp6_rpxyYa4KHD-92" value="FK2" style="shape=partialRectangle;connectable=0;fillColor=none;top=0;left=0;bottom=0;right=0;editable=1;overflow=hidden;whiteSpace=wrap;html=1;" vertex="1" parent="9z6aoZVp6_rpxyYa4KHD-91">
          <mxGeometry width="30" height="30" as="geometry">
            <mxRectangle width="30" height="30" as="alternateBounds" />
          </mxGeometry>
        </mxCell>
        <mxCell id="9z6aoZVp6_rpxyYa4KHD-93" value="customer_key" style="shape=partialRectangle;connectable=0;fillColor=none;top=0;left=0;bottom=0;right=0;align=left;spacingLeft=6;overflow=hidden;whiteSpace=wrap;html=1;" vertex="1" parent="9z6aoZVp6_rpxyYa4KHD-91">
          <mxGeometry x="30" width="150" height="30" as="geometry">
            <mxRectangle width="150" height="30" as="alternateBounds" />
          </mxGeometry>
        </mxCell>
        <mxCell id="9z6aoZVp6_rpxyYa4KHD-94" value="" style="shape=tableRow;horizontal=0;startSize=0;swimlaneHead=0;swimlaneBody=0;fillColor=none;collapsible=0;dropTarget=0;points=[[0,0.5],[1,0.5]];portConstraint=eastwest;top=0;left=0;right=0;bottom=0;" vertex="1" parent="9z6aoZVp6_rpxyYa4KHD-78">
          <mxGeometry y="120" width="180" height="30" as="geometry" />
        </mxCell>
        <mxCell id="9z6aoZVp6_rpxyYa4KHD-95" value="" style="shape=partialRectangle;connectable=0;fillColor=none;top=0;left=0;bottom=0;right=0;editable=1;overflow=hidden;whiteSpace=wrap;html=1;" vertex="1" parent="9z6aoZVp6_rpxyYa4KHD-94">
          <mxGeometry width="30" height="30" as="geometry">
            <mxRectangle width="30" height="30" as="alternateBounds" />
          </mxGeometry>
        </mxCell>
        <mxCell id="9z6aoZVp6_rpxyYa4KHD-96" value="order_date" style="shape=partialRectangle;connectable=0;fillColor=none;top=0;left=0;bottom=0;right=0;align=left;spacingLeft=6;overflow=hidden;whiteSpace=wrap;html=1;" vertex="1" parent="9z6aoZVp6_rpxyYa4KHD-94">
          <mxGeometry x="30" width="150" height="30" as="geometry">
            <mxRectangle width="150" height="30" as="alternateBounds" />
          </mxGeometry>
        </mxCell>
        <mxCell id="9z6aoZVp6_rpxyYa4KHD-97" value="" style="shape=tableRow;horizontal=0;startSize=0;swimlaneHead=0;swimlaneBody=0;fillColor=none;collapsible=0;dropTarget=0;points=[[0,0.5],[1,0.5]];portConstraint=eastwest;top=0;left=0;right=0;bottom=0;" vertex="1" parent="9z6aoZVp6_rpxyYa4KHD-78">
          <mxGeometry y="150" width="180" height="30" as="geometry" />
        </mxCell>
        <mxCell id="9z6aoZVp6_rpxyYa4KHD-98" value="" style="shape=partialRectangle;connectable=0;fillColor=none;top=0;left=0;bottom=0;right=0;editable=1;overflow=hidden;whiteSpace=wrap;html=1;" vertex="1" parent="9z6aoZVp6_rpxyYa4KHD-97">
          <mxGeometry width="30" height="30" as="geometry">
            <mxRectangle width="30" height="30" as="alternateBounds" />
          </mxGeometry>
        </mxCell>
        <mxCell id="9z6aoZVp6_rpxyYa4KHD-99" value="shipping_date" style="shape=partialRectangle;connectable=0;fillColor=none;top=0;left=0;bottom=0;right=0;align=left;spacingLeft=6;overflow=hidden;whiteSpace=wrap;html=1;" vertex="1" parent="9z6aoZVp6_rpxyYa4KHD-97">
          <mxGeometry x="30" width="150" height="30" as="geometry">
            <mxRectangle width="150" height="30" as="alternateBounds" />
          </mxGeometry>
        </mxCell>
        <mxCell id="9z6aoZVp6_rpxyYa4KHD-100" value="" style="shape=tableRow;horizontal=0;startSize=0;swimlaneHead=0;swimlaneBody=0;fillColor=none;collapsible=0;dropTarget=0;points=[[0,0.5],[1,0.5]];portConstraint=eastwest;top=0;left=0;right=0;bottom=0;" vertex="1" parent="9z6aoZVp6_rpxyYa4KHD-78">
          <mxGeometry y="180" width="180" height="30" as="geometry" />
        </mxCell>
        <mxCell id="9z6aoZVp6_rpxyYa4KHD-101" value="" style="shape=partialRectangle;connectable=0;fillColor=none;top=0;left=0;bottom=0;right=0;editable=1;overflow=hidden;whiteSpace=wrap;html=1;" vertex="1" parent="9z6aoZVp6_rpxyYa4KHD-100">
          <mxGeometry width="30" height="30" as="geometry">
            <mxRectangle width="30" height="30" as="alternateBounds" />
          </mxGeometry>
        </mxCell>
        <mxCell id="9z6aoZVp6_rpxyYa4KHD-102" value="due_date" style="shape=partialRectangle;connectable=0;fillColor=none;top=0;left=0;bottom=0;right=0;align=left;spacingLeft=6;overflow=hidden;whiteSpace=wrap;html=1;" vertex="1" parent="9z6aoZVp6_rpxyYa4KHD-100">
          <mxGeometry x="30" width="150" height="30" as="geometry">
            <mxRectangle width="150" height="30" as="alternateBounds" />
          </mxGeometry>
        </mxCell>
        <mxCell id="9z6aoZVp6_rpxyYa4KHD-103" value="" style="shape=tableRow;horizontal=0;startSize=0;swimlaneHead=0;swimlaneBody=0;fillColor=none;collapsible=0;dropTarget=0;points=[[0,0.5],[1,0.5]];portConstraint=eastwest;top=0;left=0;right=0;bottom=0;" vertex="1" parent="9z6aoZVp6_rpxyYa4KHD-78">
          <mxGeometry y="210" width="180" height="30" as="geometry" />
        </mxCell>
        <mxCell id="9z6aoZVp6_rpxyYa4KHD-104" value="" style="shape=partialRectangle;connectable=0;fillColor=none;top=0;left=0;bottom=0;right=0;editable=1;overflow=hidden;whiteSpace=wrap;html=1;" vertex="1" parent="9z6aoZVp6_rpxyYa4KHD-103">
          <mxGeometry width="30" height="30" as="geometry">
            <mxRectangle width="30" height="30" as="alternateBounds" />
          </mxGeometry>
        </mxCell>
        <mxCell id="9z6aoZVp6_rpxyYa4KHD-105" value="sales_amount" style="shape=partialRectangle;connectable=0;fillColor=none;top=0;left=0;bottom=0;right=0;align=left;spacingLeft=6;overflow=hidden;whiteSpace=wrap;html=1;" vertex="1" parent="9z6aoZVp6_rpxyYa4KHD-103">
          <mxGeometry x="30" width="150" height="30" as="geometry">
            <mxRectangle width="150" height="30" as="alternateBounds" />
          </mxGeometry>
        </mxCell>
        <mxCell id="9z6aoZVp6_rpxyYa4KHD-106" value="" style="shape=tableRow;horizontal=0;startSize=0;swimlaneHead=0;swimlaneBody=0;fillColor=none;collapsible=0;dropTarget=0;points=[[0,0.5],[1,0.5]];portConstraint=eastwest;top=0;left=0;right=0;bottom=0;" vertex="1" parent="9z6aoZVp6_rpxyYa4KHD-78">
          <mxGeometry y="240" width="180" height="30" as="geometry" />
        </mxCell>
        <mxCell id="9z6aoZVp6_rpxyYa4KHD-107" value="" style="shape=partialRectangle;connectable=0;fillColor=none;top=0;left=0;bottom=0;right=0;editable=1;overflow=hidden;whiteSpace=wrap;html=1;" vertex="1" parent="9z6aoZVp6_rpxyYa4KHD-106">
          <mxGeometry width="30" height="30" as="geometry">
            <mxRectangle width="30" height="30" as="alternateBounds" />
          </mxGeometry>
        </mxCell>
        <mxCell id="9z6aoZVp6_rpxyYa4KHD-108" value="quantity" style="shape=partialRectangle;connectable=0;fillColor=none;top=0;left=0;bottom=0;right=0;align=left;spacingLeft=6;overflow=hidden;whiteSpace=wrap;html=1;" vertex="1" parent="9z6aoZVp6_rpxyYa4KHD-106">
          <mxGeometry x="30" width="150" height="30" as="geometry">
            <mxRectangle width="150" height="30" as="alternateBounds" />
          </mxGeometry>
        </mxCell>
        <mxCell id="9z6aoZVp6_rpxyYa4KHD-109" value="" style="shape=tableRow;horizontal=0;startSize=0;swimlaneHead=0;swimlaneBody=0;fillColor=none;collapsible=0;dropTarget=0;points=[[0,0.5],[1,0.5]];portConstraint=eastwest;top=0;left=0;right=0;bottom=0;" vertex="1" parent="9z6aoZVp6_rpxyYa4KHD-78">
          <mxGeometry y="270" width="180" height="30" as="geometry" />
        </mxCell>
        <mxCell id="9z6aoZVp6_rpxyYa4KHD-110" value="" style="shape=partialRectangle;connectable=0;fillColor=none;top=0;left=0;bottom=0;right=0;editable=1;overflow=hidden;whiteSpace=wrap;html=1;" vertex="1" parent="9z6aoZVp6_rpxyYa4KHD-109">
          <mxGeometry width="30" height="30" as="geometry">
            <mxRectangle width="30" height="30" as="alternateBounds" />
          </mxGeometry>
        </mxCell>
        <mxCell id="9z6aoZVp6_rpxyYa4KHD-111" value="price" style="shape=partialRectangle;connectable=0;fillColor=none;top=0;left=0;bottom=0;right=0;align=left;spacingLeft=6;overflow=hidden;whiteSpace=wrap;html=1;" vertex="1" parent="9z6aoZVp6_rpxyYa4KHD-109">
          <mxGeometry x="30" width="150" height="30" as="geometry">
            <mxRectangle width="150" height="30" as="alternateBounds" />
          </mxGeometry>
        </mxCell>
        <mxCell id="9z6aoZVp6_rpxyYa4KHD-113" value="" style="edgeStyle=entityRelationEdgeStyle;fontSize=12;html=1;endArrow=ERzeroToMany;startArrow=ERmandOne;rounded=0;startSize=8;endSize=8;curved=1;entryX=0;entryY=0.5;entryDx=0;entryDy=0;" edge="1" parent="1" target="9z6aoZVp6_rpxyYa4KHD-91">
          <mxGeometry width="100" height="100" relative="1" as="geometry">
            <mxPoint x="-10" y="35" as="sourcePoint" />
            <mxPoint x="90" y="-65" as="targetPoint" />
          </mxGeometry>
        </mxCell>
        <mxCell id="9z6aoZVp6_rpxyYa4KHD-114" value="" style="edgeStyle=entityRelationEdgeStyle;fontSize=12;html=1;endArrow=ERzeroToMany;startArrow=ERmandOne;rounded=0;startSize=8;endSize=8;curved=1;exitX=0;exitY=0.5;exitDx=0;exitDy=0;" edge="1" parent="1" source="9z6aoZVp6_rpxyYa4KHD-45" target="9z6aoZVp6_rpxyYa4KHD-88">
          <mxGeometry width="100" height="100" relative="1" as="geometry">
            <mxPoint x="320" y="99" as="sourcePoint" />
            <mxPoint x="461" y="157" as="targetPoint" />
          </mxGeometry>
        </mxCell>
      </root>
    </mxGraphModel>
  </diagram>
</mxfile>
